<?xml version="1.0" standalone="no"?>
<!DOCTYPE svg PUBLIC "-//W3C//DTD SVG 1.1//EN" "http://www.w3.org/Graphics/SVG/1.1/DTD/svg11.dtd" >
<svg xmlns="http://www.w3.org/2000/svg">
<metadata>Generated by IcoMoon</metadata>
<defs>
<font id="icomoon" horiz-adv-x="1024">
<font-face units-per-em="1024" ascent="960" descent="-64" />
<missing-glyph horiz-adv-x="1024" />
<glyph unicode="&#x20;" horiz-adv-x="512" d="" />
<glyph unicode="&#xe900;" glyph-name="accessories" horiz-adv-x="671" d="M0 768.24c55.757 99.615 140.485 160.387 250.771 186.424 7.363 1.974 14.726 3.361 22.089 4.802 1.64 0.472 3.523 0.744 5.47 0.744 11.316 0 20.489-9.173 20.489-20.489 0-0.374-0.010-0.746-0.030-1.115l0.002 0.052c0.373-19.902 0-39.803 0-60.398h74.698v52.449c0 25.077 7.47 31.586 32.013 27.051q167.003-31.053 258.241-174.473c5.336-8.804 10.671-17.767 4.482-28.225s-16.007-10.991-26.678-10.938c-54.689 0.267-109.326 0-164.015 0h-16.060v-14.993c0-60.452-0.32-120.904 0.267-181.409 0-14.993-5.015-23.476-19.208-29.025-65.681-25.877-131.255-51.915-196.295-79.18-22.303-9.337-36.282 3.041-36.015 24.49 1.281 88.89 0.534 177.781 0.534 266.778v13.339h-15.153c-54.689 0-109.379 0.48-164.015-0.32-14.459 0-24.65 3.842-31.586 16.273zM256.694 911.98c-57.517-3.308-174.206-79.393-192.080-124.372h544.387c-34.734 55.863-145.394 126.666-193.521 123.305 0-16.7 0.32-33.507 0-50.261-0.373-17.981-8.484-25.611-26.678-25.664q-52.662 0-105.271 0c-18.621 0-26.678 7.79-26.678 26.678-0.373 16.327-0.16 32.707-0.16 50.314zM253.226 488.017c54.369 21.876 107.085 42.684 159.533 64.614 3.521 1.494 6.349 8.91 6.403 13.606 0.48 51.488 0 102.976 0 154.464v22.676h-165.936zM461.472 130.054c7.096-40.977-7.47-73.097-36.709-102.016-25.184-24.864-46.633-53.356-69.736-80.514-13.286-15.526-24.81-15.366-38.203 0.373q-48.714 57.037-97.641 114.501c-17.607 20.649-11.471 48.020 13.232 57.837l195.121 78.753c21.876 8.857 33.934 0.427 33.934-23.583v-45.352zM336.14-10.378c28.012 33.027 54.369 64.027 80.674 95.186 1.355 1.607 2.248 3.645 2.451 5.881l0.003 0.041c0 19.261 0 38.576 0 59.865l-163.802-65.947zM456.137 461.872c-3.201-3.148-8.057-11.311-15.046-14.353-64.774-27.958-129.867-55.116-194.961-82.221-12.859-5.336-23.476-0.907-28.385 10.671s0.427 22.409 14.353 28.278q80.407 33.987 160.974 67.602c11.792 4.962 23.423 10.298 35.428 14.673 13.819 5.069 27.638-5.015 27.638-24.65zM456.083 392.19c-0.694-9.231-7.47-14.833-17.287-18.941-56.984-23.69-113.754-48.020-170.738-71.763-6.936-2.881-13.872-5.762-20.862-8.43-13.979-5.336-24.81-1.387-29.772 10.671-4.535 10.991 0.373 21.662 13.766 27.371q75.391 32.013 150.996 63.707c15.42 6.509 30.733 13.286 46.419 19.101 13.766 4.909 27.692-5.549 27.478-21.716zM456.297 244.609c-3.148-3.308-7.683-11.845-14.619-14.833-64.667-28.065-129.654-55.276-194.694-82.488-13.125-5.336-24.81-0.534-29.506 11.311-4.322 10.671 0.96 21.982 13.872 27.425q96.84 40.71 193.894 81.047c15.9 6.563 30.359-1.921 31.053-22.463zM456.030 316.585c-2.935-3.095-7.256-11.311-13.872-14.193-64.774-27.958-129.921-55.17-195.068-82.274-13.339-5.336-25.13-0.427-29.772 11.418-4.215 10.671 1.227 21.342 14.513 27.158q95.72 40.337 191.546 80.353c17.501 7.363 33.080-1.441 32.654-22.463z" />
<glyph unicode="&#xe901;" glyph-name="facade" horiz-adv-x="1031" d="M1030.832 486.005v-15.416c-9.394-19.301-25.878-22.376-44.923-19.857-2.519 0.342-5.167-0.256-7.686 0-9.48 1.452-11.487-2.904-11.402-11.743 0.384-67.085 0.342-134.17 0.342-201.256q0-62.73-0.256-125.374c-0.063-0.459-0.099-0.99-0.099-1.529 0-5.209 3.343-9.637 8-11.256l0.084-0.025c13.009-6.505 24.060-14.951 33.267-25.101l0.083-0.093c20.582-24.298 23.102-52.908 13.793-82.885s-39.286-55.513-70.672-55.513q-437.143-0.384-874.371 0c-10.234 0.263-19.818 2.789-28.353 7.093l0.383-0.175c-25.024 12.298-40.097 31.472-46.972 59.997-4.27 17.892-1.068 33.393 3.245 48.723 6.583 22.234 23.088 39.638 44.255 47.327l0.497 0.158c7.857 3.075 8.54 6.875 8.54 13.451q0 163.336 0 326.672c0 3.502-0.299 7.003-0.512 10.932h-26.433c-13.195 0-23.23 5.893-27.5 16.227-3.971 9.651 0 25.194 8.54 32.966q104.621 98.002 209.369 195.918 135.793 126.527 271.287 253.31c16.526 15.458 30.788 15.202 47.485-0.555s34.717-32.539 52.139-48.809l194.124-181.57c41.464-38.688 83.312-76.864 124.434-116.065 40.14-38.133 79.597-77.12 119.31-115.552zM429.627 215.102h-1.537c0 29.336 0 58.673 0 88.009 0 18.362 11.060 28.867 29.422 28.867q54.445 0 108.891 0c22.589 0 30.959-8.284 30.959-31.002 0-37.407 0-74.772 0-112.179-0.214-24.554-0.982-49.065-1.708-73.576-0.256-9.181 4.868-9.266 12.127-9.224 39.542 0.342 79.085 0.384 118.627 0 8.54 0 11.615 1.751 11.572 10.846q-0.512 103.809 0 207.661c0 6.875-1.623 9.736-9.096 10.163-6.343 0.006-12.202 2.071-16.946 5.564l0.079-0.056c-58.801 54.531-117.218 109.531-175.72 164.361-6.405 5.978-12.811 16.141-19.387 16.483-6.106 0.342-12.811-10.078-19.216-15.757l-3.245-2.946q-81.604-76.864-163.123-153.728c-9.907-9.352-19.728-17.081-34.632-14.391-7.345 1.409-9.693-2.904-9.096-9.736 0.683-8.54 1.58-16.825 1.537-25.237q-0.641-91.81-1.665-183.62c0-6.832 1.964-9.992 9.437-9.95q61.491 0.47 122.982 0c6.96 0 10.035 2.050 9.95 9.394-0.342 33.393-0.214 66.744-0.214 100.051zM515.032 52.577h-407.807c-6.96 0-13.921 0-20.881 0-17.964-0.225-32.44-14.84-32.44-32.836 0-1.522 0.103-3.019 0.304-4.486l-0.019 0.17c2.904-16.27 17.892-26.561 37.407-26.561h833.334c4.74 0 9.523-0.256 14.263 0 15.287 0.726 29.166 10.035 32.24 21.351 6.576 24.426-7.9 42.361-34.162 42.361zM217.781 448.47c-2.135 1.495-2.69 2.263-3.245 2.263-31.899 0-63.754 0-95.61 0-6.704 0-7.857-3.544-7.345-9.266 0.811-9.096 1.58-18.234 1.623-27.372q0-135.793 0-271.586c0-8.54-0.726-16.825-1.409-25.194-0.769-10.078 1.324-11.359 11.615-11.359 33.308 0.47 66.658 0.512 99.923 0 8.028 0 11.316 0.769 11.316 9.523q-0.384 104.492 0 208.899c0 7.772-2.349 10.249-10.078 9.992-19.771-0.683-39.585-0.982-59.356-0.726-0.569-0.031-1.234-0.049-1.904-0.049-6.096 0-11.849 1.47-16.923 4.075l0.209-0.097c-7.496 4.859-12.385 13.183-12.385 22.649 0 7.956 3.454 15.106 8.944 20.031l0.025 0.022c14.903 14.561 30.575 28.354 45.99 42.446 9.266 8.455 18.661 16.825 28.611 25.749zM814.588 450.818c1.409-3.331 1.537-4.569 2.263-5.21 23.913-21.351 47.997-42.702 71.782-64.352 6.090-5.034 9.942-12.589 9.942-21.045 0-3.925-0.83-7.656-2.324-11.028l0.069 0.174c-4.953-11.145-14.86-16.483-28.183-16.141-22.718 0.598-45.435 0.512-68.324 1.11-6.619 0-9.309-2.050-9.053-8.797 0.384-10.59 0.427-21.351 0.384-31.856 0-58.63 0-117.218-0.427-175.848 0-9.138 1.58-12.213 12.298-11.829 33.222 1.068 66.573 0.598 99.838 0 8.54 0 11.402 2.519 10.804 10.462s-1.537 16.782-1.537 25.152q0 137.416 0 274.704c-0.003 0.374-0.005 0.816-0.005 1.258 0 8.049 0.545 15.97 1.6 23.729l-0.1-0.903c1.025 7.601-1.11 10.804-9.181 10.676-19.387-0.342-38.816 0-58.246 0zM231.361 387.021c13.11 0 24.596 0.897 35.913 0 16.398-1.623 28.226 3.715 40.482 15.458 60.765 57.904 123.068 114.527 183.919 172.645 14.348 13.707 32.197 16.697 49.236 0.427 64.352-61.406 129.644-121.83 194.68-182.467 2.896-2.972 6.686-5.061 10.936-5.832l0.124-0.019c16.782-1.238 33.607-1.623 50.389-2.135 1.153 0 2.349 1.238 4.655 2.519-3.16 3.502-5.509 6.576-8.54 9.181-42.318 38.902-84.849 77.547-126.954 116.663-43.727 40.866-87.241 82.159-130.925 123.281-18.618 17.508-18.533 17.465-37.194 0q-83.312-78.145-166.838-155.821c-31.045-28.824-62.559-57.178-93.945-85.832-2.082-2.39-4.039-5.026-5.783-7.809l-0.153-0.262zM99.71 506.844l1.324-3.075h11.615c51.926 0.598 103.895 1.068 155.821 1.964 5.073 0.089 9.716 1.86 13.413 4.776l-0.047-0.036q47.399 42.275 94.158 85.405c1.797 2.444 3.252 5.28 4.214 8.335l0.056 0.205c-1.107 0.426-2.426 0.796-3.787 1.046l-0.141 0.022c-54.872-0.641-109.745-1.11-164.574-2.263-5.839-0.58-11.016-3.042-15.004-6.761l0.015 0.014c-30.788-27.543-61.15-55.513-91.596-83.44-2.050-1.922-3.672-4.142-5.466-6.192zM654.327 605.571l-1.836-2.776c1.983-2.903 4.018-5.439 6.228-7.811l-0.036 0.039c30.105-27.885 60.167-55.983 90.657-83.397 4.141-3.423 9.442-5.577 15.238-5.806l0.049-0.002c52.054-0.982 104.065-1.452 156.119-2.007 3.715 0 7.473 0.342 11.231 0.555l1.238 2.946c-4.953 4.27-9.992 8.54-14.86 13.152-28.226 26.048-56.324 52.268-84.764 78.145-3.008 2.767-6.949 4.562-11.3 4.865l-0.059 0.003c-44.709 0-89.419-0.427-134.128-0.342-11.273-0.043-22.504 1.452-33.777 2.434zM561.919 691.958c7.9-9.266 15.245-19.216 23.999-27.756 4.296-3.847 9.937-6.271 16.14-6.49l0.044-0.001c52.695-1.11 105.389-1.623 157.998-2.221 2.989 0 6.021 0.427 12.469 0.939l-123.495 115.040zM263.302 658.821l1.537-3.459c10.804 0.726 21.351 2.007 32.326 2.050 45.051 0 90.102 0 135.11 0 0.162-0.005 0.354-0.008 0.545-0.008 3.88 0 7.48 1.201 10.448 3.251l-0.061-0.040c8.54 7.174 16.654 15.373 25.322 22.675 5.765 4.825 4.014 8.113-0.683 12.213-12.811 11.273-25.621 22.76-38.432 34.162-15.202 14.22-30.276 28.354-45.094 42.104zM482.066 189.395v0c0-24.853 0-49.748 0-74.601 0-7.345 3.075-9.266 10.12-9.010 13.836 0.555 27.714 0.47 41.549 0 7.686-0.256 10.291 2.434 10.291 10.12q-0.384 76.864 0 153.728c0 6.363-1.922 9.736-8.54 9.736-14.946 0-29.892 0.427-44.837-0.384-3.961-1.139-7.017-4.195-8.136-8.073l-0.021-0.083c-0.683-27.287-0.427-54.36-0.427-81.433zM541.080 872.076v-125.032l66.487 62.26zM488.428 866.055c-5.252 0.214-54.531-43.215-64.779-57.264 1.057-1.493 2.137-2.802 3.302-4.029l-0.014 0.015c17.465-16.611 34.888-33.265 52.609-49.62 2.553-1.564 5.537-2.726 8.723-3.307l0.159-0.024z" />
<glyph unicode="&#xe902;" glyph-name="fence" horiz-adv-x="996" d="M0-6.258v817.363c4.995 24.44 20.465 41.467 39.050 56.775 20.948 17.242 40.232 36.525 61.395 53.714 17.296 13.751 36.257 25.621 54.52 38.405h27.34c18.155-12.354 37.6-23.312 54.197-37.6 34.001-28.683 66.605-59.085 97.491-87.070 24.117 21.915 50.008 46.462 77.026 69.828 23.527 20.196 43.723 45.281 75.146 54.842h24.117c16.114-10.259 33.249-18.854 47.59-31.047 36.633-31.154 71.923-63.866 105.44-93.892 16.436 15.416 33.786 33.732 53.177 49.524 32.067 25.997 57.796 59.998 97.813 75.414h27.34c16.812-11.602 34.431-22.184 50.169-35.075 24.708-20.143 47.537-42.541 72.245-62.63 23.097-18.746 32.228-42.112 32.228-71.439q-0.537-388.781 0-777.454c0-4.029 0-8.111 0-12.139-1.934-41.843-29.381-68.163-71.439-68.217q-98.619 0-197.345 0c-0.809-0.036-1.758-0.056-2.712-0.056-24.66 0-46.153 13.554-57.438 33.619l-0.171 0.331c-1.128 1.88-2.525 3.653-4.619 6.607-16.544-31.476-42.112-41.413-74.823-40.876-63.275 1.074-126.55 0.269-189.825 0.322-0.587-0.019-1.277-0.029-1.969-0.029-23.846 0-44.728 12.696-56.253 31.697l-0.165 0.292c-1.719 2.632-3.867 4.942-6.285 8.003-15.201-28.683-38.137-40.446-68.915-40.124-63.758 0.537-127.517 0-191.275 0.269-0.597-0.014-1.3-0.023-2.005-0.023-6.732 0-13.288 0.752-19.589 2.176l0.592-0.112c-30.563 7.627-45.925 29.167-52.049 58.602zM368.423 647.225h-69.828v17.672c0 43.562-0.322 87.124 0 130.632 0.046 0.725 0.072 1.571 0.072 2.424 0 12.88-5.973 24.365-15.3 31.836l-0.081 0.062c-30.832 26.212-60.965 53.284-91.313 79.926-17.511 15.308-28.844 15.040-46.462-0.483-30.348-26.857-60.535-53.714-91.313-80.034-9.161-7.415-14.969-18.659-14.969-31.26 0-0.605 0.013-1.207 0.040-1.805l-0.003 0.085q0.322-394.85 0-789.593c0-24.010 10.098-34.162 34.001-34.162q94.912 0 189.878 0c26.051 0 35.129 9.131 35.183 35.612q0 97.168 0 194.39v16.114h69.828v-19.015q0-96.685 0-192.886c0-23.956 10.367-34.377 33.947-34.377q94.16 0 188.374 0c27.931 0 37.6 9.346 37.6 37.116q0 95.611 0 191.329v17.94h69.828v-19.015c0-64.833 0-129.611 0-194.444 0-22.56 10.098-32.712 32.228-32.765q97.974 0 195.948 0c19.928 0 31.1 11.065 31.1 30.885q0 398.019-0.483 795.931c-0.866 11.256-5.82 21.212-13.363 28.51l-0.012 0.012c-30.187 27.824-61.502 54.251-92.28 81.323-17.618 15.523-29.113 16.114-46.57 0.645-30.939-26.857-61.449-54.251-92.549-80.947-8.77-7.048-14.335-17.773-14.335-29.797 0-0.666 0.017-1.328 0.051-1.986l-0.004 0.092c0.43-44.529 0-89.111 0-133.64v-16.544h-69.183v16.114c0 44.045 0 88.091 0 132.136 0.035 0.635 0.054 1.377 0.054 2.124 0 13.022-6.003 24.643-15.392 32.245l-0.078 0.061c-30.724 26.32-60.804 53.714-91.313 80.087-17.726 15.47-28.898 15.47-46.677 0-23.312-20.304-44.958-42.971-69.828-60.697-28.952-20.787-40.124-45.657-37.6-81.215 3.008-39.856 0.806-79.926 0.806-120.641zM299.938 591.792h67.303v-317.556h-67.303zM629.526 591.738h66.981v-317.341h-66.981z" />
<glyph unicode="&#xe903;" glyph-name="gutters" horiz-adv-x="1012" d="M871.374 763.759c0.711-14.557 1.368-28.074 1.915-41.59 0.657-16.034-3.885-23.367-18.333-30.098-2.711-1.559-5.86-2.968-9.156-4.054l-0.366-0.105c-22.546-5.089-27.362-19.591-25.501-41.043 2.025-28.128 0.493-56.585 0.493-87.887 4.117 2.774 8.857 5.44 13.808 7.725l0.64 0.265c7.224 2.517 15.378 6.567 22.163 5.144 7.252-2.059 13.051-7.105 16.079-13.689l0.064-0.156c2.9-8.701 3.174-19.318-6.129-26.651-44.272-34.914-119.135-45.64-170.083-10.507-17.621 12.149-33.874 26.924-56.64 30.153-28.949 4.104-54.122-4.104-77.599-20.193-17.129-11.766-37.103-4.597-40.441 14.885-0.364 1.521-0.573 3.267-0.573 5.061 0 8.418 4.591 15.764 11.407 19.67l0.111 0.058c9.759 5.877 21.305 11.743 33.271 16.811l1.862 0.701c5.043 1.289 8.711 5.791 8.711 11.151 0 0.584-0.044 1.158-0.128 1.718l0.008-0.063c-0.493 21.89 0 44.327-0.876 66.435-0.533 4.986-3.128 9.277-6.903 12.061l-0.047 0.033c-8.247 4.641-18.258 9.435-28.581 13.622l-1.845 0.662c-8.773 3.124-14.94 11.357-14.94 21.031 0 0.552 0.020 1.1 0.060 1.642l-0.004-0.073c0.328 12.805 0.493 25.666 1.642 38.307 0.766 7.716-0.876 10.945-9.248 9.686-4.65-0.581-10.033-0.912-15.492-0.912-1.095 0-2.187 0.013-3.275 0.040l0.161-0.003h-473.255c-15.706 0-24.024 8.154-24.079 24.188q-0.274 74.972-0.274 149.671c0 14.611 8.646 22.546 23.586 22.546h959.042c0.812 0.058 1.759 0.091 2.714 0.091 5.018 0 9.823-0.917 14.255-2.591l-0.278 0.092c7.681-3.592 12.907-11.255 12.907-20.138 0-0.926-0.057-1.839-0.167-2.735l0.011 0.107c-0.657-26.487 0-52.973-0.547-79.405-1.313-52.699-39.456-90.569-91.663-91.444-15.487-0.438-30.974-0.219-48.486-0.219zM506.473 913.539v0q-224.807 0-449.669 0c-7.826 0-10.124-2.517-10.069-10.069 0.328-26.815 0.602-53.739 0-80.554 0-10.398 2.9-13.079 13.189-13.024q162.312 0.821 324.624 0.657h532.576c23.258 0 42.466 14.338 46.023 37.596 2.846 18.278 1.313 37.158 2.353 55.764 0.438 8.318-3.338 9.467-10.452 9.467q-224.369 0.109-448.575 0.164zM772.542 546.394c0.403 1.349 0.748 2.98 0.967 4.65l0.018 0.166c0 45.147 0 90.24-0.657 135.388 0 10.945 1.642 20.303 11.985 25.611s20.248 9.522 30.481 14.119c8.482 3.776 16.417 28.621 10.945 35.954-1.698 1.388-3.891 2.229-6.279 2.229-0.313 0-0.623-0.014-0.929-0.043l0.039 0.003c-76.286 0-152.516-0.547-228.802-0.657-20.139 0-19.865 0.328-20.084-20.795-0.121-0.714-0.19-1.536-0.19-2.374 0-6.061 3.61-11.28 8.797-13.622l0.094-0.038c10.398-4.816 20.357-10.945 31.083-14.885 11.656-4.378 14.119-13.079 14.064-23.75 0-26.87 0-53.684-0.602-80.554 0-8.099 3.229-9.741 10.398-10.015 10.344-0.318 20.207-1.518 29.771-3.531l-1.096 0.193c20.412-4.433 37.596-15.432 54.013-28.074 14.646-12.428 33.765-19.985 54.649-19.985 0.469 0 0.937 0.004 1.404 0.011l-0.070-0.001zM574.003 419.872c-7.261-4.074-15.805-7.952-24.686-11.119l-1.199-0.373c-1.673-0.575-3.6-0.906-5.605-0.906-8.159 0-15.035 5.494-17.13 12.985l-0.030 0.125c-4.706 12.204-3.721 21.616 5.472 28.676 43.779 32.835 109.448 45.366 160.889 14.502 14.119-8.537 27.362-18.552 41.973-26.213 10.902-6.126 23.929-9.734 37.799-9.734 9.752 0 19.087 1.784 27.697 5.043l-0.538-0.179c14.746 5.898 27.15 12.067 38.988 19.092l-1.283-0.705c10.945 5.91 27.362 3.885 34.038-5.089 3.489-3.862 5.623-9.006 5.623-14.648 0-7.943-4.23-14.897-10.56-18.734l-0.098-0.055c-9.4-6.411-20.175-12.477-31.464-17.611l-1.37-0.558c-7.935-3.776-12.587-7.278-11.656-18.004 1.478-17.183 0-34.586 0-51.933-0.245-4.403-0.385-9.554-0.385-14.739 0-10.712 0.597-21.285 1.76-31.687l-0.116 1.279c0.876-5.472 9.303-10.945 15.432-14.611 25.337-14.611 51.167-28.457 76.614-42.63l0.985-0.602c31.466-18.989 31.357-18.989 31.357-56.421q0-99.872 0-199.743c0-10.945-0.876-21.89-12.094-26.705-3.757-1.668-8.141-2.639-12.751-2.639-6.766 0-13.044 2.092-18.221 5.664l0.108-0.070c-71.689 42.74-143.815 84.823-215.504 127.562-27.118 15.262-50.017 30.214-71.889 46.472l1.787-1.27c-29.551 22.984-42.247 55.873-42.63 93.031-0.711 67.201-0.711 134.293-0.711 201.932 0 3.502-0.383 6.731-0.602 10.617zM623.856 434.264v-12.805q0-107.369 0-214.793c-0.014-0.534-0.022-1.162-0.022-1.792 0-25.931 13.799-48.639 34.455-61.181l0.317-0.179c32.835-20.686 66.435-39.456 99.653-59.212 41.755-24.9 83.4-50.073 125.154-75.027 4.323-2.572 9.194-4.214 14.776-6.786 0.536 2.184 0.999 4.867 1.289 7.6l0.024 0.28c0 51.277 0 102.499-1.149 153.775-0.744 6.402-4.153 11.886-9.072 15.387l-0.067 0.045c-34.531 21.178-69.719 41.317-104.469 62.276-4.542 2.736-10.398 8.044-10.671 12.477-1.313 23.477-1.149 47.008-1.368 70.54 0 18.442 0 36.884 0 55.271-35.987 0.911-68.729 14.092-94.37 35.495l0.244-0.198c-13.758 11.747-31.752 18.894-51.416 18.894-1.164 0-2.321-0.025-3.473-0.075l0.164 0.006zM98.504 100.829c-3.448 33.984 12.477 63.535 28.949 92.648 14.499 26.51 28.292 48.539 43.188 69.736l-1.543-2.316c17.348 24.133 36.556 47.063 56.202 69.445 10.233 11.602 25.994 7.169 34.75-5.472s20.303-23.367 29.223-35.954c19.372-27.362 39.018-54.724 56.257-83.345 10.506-17.923 20.594-38.944 28.979-60.81l1.010-2.998c13.9-35.024 8.92-69.171-7.442-102.553-12.246-23.829-29.878-43.355-51.369-57.495l-0.564-0.349c-20.547-13.482-45.726-21.504-72.779-21.504-3.796 0-7.555 0.158-11.271 0.468l0.486-0.033c-49.706 2.502-92.464 30.054-116.144 70.201l-0.364 0.666c-11.133 18.061-17.728 39.949-17.728 63.376 0 2.212 0.059 4.41 0.175 6.592l-0.013-0.305zM238.488 9.057c0.904-0.035 1.966-0.054 3.032-0.054 21.263 0 40.696 7.834 55.571 20.773l-0.103-0.088c26.432 21.124 41.919 48.212 34.422 82.086-5.823 22.41-14.030 42.057-24.575 60.175l0.606-1.128c-12.039 22.601-26.924 43.779-40.605 65.395-6.786 10.945-13.572 21.561-20.631 32.178-2.846 4.268-6.95 9.303-11.602 2.681-10.945-15.487-21.507-31.248-31.357-47.391-13.626-22.327-27.362-44.6-39.292-67.803-13.298-25.994-25.392-51.496-13.189-83.454 10.89-28.676 50.292-66.49 87.614-63.425zM334.31 574.468c0 21.89 0 43.779 0 65.341 0 15.542 8.92 25.337 23.531 25.72s25.228-9.686 25.228-25.775c0-38.307 0-76.231-0.383-114.374 0-6.184 0.328-12.422 0.547-18.661 0.547-16.417-8.92-26.487-25.118-26.651-14.228 0-23.696 9.96-23.696 25.556v68.843zM145.019 572.826c0-21.89 0-44.327 0-66.49 0-17.402-8.428-26.158-24.133-25.939s-24.626 10.179-24.571 27.362q0 62.933 0 125.866c0 18.497 5.965 28.238 19.537 31.193 1.628 0.396 3.496 0.623 5.418 0.623 13.127 0 23.778-10.601 23.859-23.709v-0.008c0-23.039-0.109-45.968-0.109-68.898zM239.692 413.25c-13.353-2.463-23.805 10.945-23.586 31.685 0.493 40.824 0.711 81.594 0.383 122.363 0 16.417 8.701 28.238 23.477 28.128s22.984-11.328 22.765-28.238q-0.876-64.192 0-128.328c0.050-0.576 0.078-1.246 0.078-1.922 0-12.883-10.282-23.365-23.087-23.688l-0.030-0.001z" />
<glyph unicode="&#xe904;" glyph-name="metal_constr" d="M0-39.709v266.262c6.084 6.646 11.045 16.334 18.721 19.096 10.577 3.885 23.074 3.463 34.775 3.37 7.254 0 10.39 0.374 10.343 8.939q-0.421 168.958 0 337.964c0 9.595-3.323 10.952-11.56 9.829-12.309-1.451-25.227-4.961-35.898 3.229-6.014 5.74-11.403 12.035-16.117 18.833l-0.264 0.403v183.374c7.395 15.117 19.891 22.699 36.038 26.116 20.219 4.306 40.344 9.361 60.376 14.415 28.082 7.208 56.163 15.071 84.245 22.372 30.328 7.863 60.61 15.305 90.798 23.167 20.078 5.195 39.97 11.092 60.001 16.381q42.965 11.279 85.696 22.138c20.5 5.102 41.093 9.782 61.499 15.211 8.705 2.293 17.083 5.71 25.601 8.612h15.258c1.544-1.404 2.855-3.604 4.68-4.025 12.824-3.229 25.788-5.897 38.612-9.080 26.912-6.599 53.87-13.198 80.641-20.219 37.161-9.782 74.136-20.078 111.297-29.813 25.695-6.693 51.483-12.637 77.318-19.376 55.508-14.509 110.829-30.047 166.618-43.527 13.526-3.276 25.086-19.657 25.086-32.013 0-54.9 0-109.846 0-164.746-0.027-12.487-7.035-23.331-17.329-28.838l-0.176-0.086c-11.42-6.833-23.401-3.744-34.962-2.434-7.582 0.796-11.092 0-11.092-9.361 0.328-107.319 0.234-214.591 0.328-321.91 0-7.91-2.574-18.394 1.451-23.027 3.417-3.885 14.602-0.983 22.372-1.123h1.076c20.968 2.715 38.8-14.883 38.612-37.442q-0.983-119.956 0-240.052c0-20.359-16.662-38.378-36.881-36.834-15.913 1.17-31.966 0.421-47.973 0.421q-452.303 0-904.606 0c-4.977 0.561-9.483 1.515-13.82 2.855l0.528-0.14c-11.935 2.247-15.632 12.59-21.295 21.061zM512.491 605.515v-0.702c-41.467 0-82.935 0-124.402-0.281-6.087-0.049-11.646-2.271-15.949-5.927l0.036 0.030q-120.939-120.33-241.128-241.456c-3.685-3.939-6.050-9.155-6.363-14.916l-0.003-0.060c-0.749-28.363 0-56.725-0.936-85.088 0-8.097 4.212-8.191 9.361-8.097 7.254 0 14.509 0.983 21.763 1.357 15.398 0.796 33.511-14.93 33.183-32.762-1.076-63.652-0.374-127.304-0.468-190.956 0.049-1.149 0.076-2.497 0.076-3.852 0-5.165-0.402-10.237-1.177-15.185l0.071 0.549c-1.638-8.752 1.872-11.279 9.922-10.624 9.361 0.702 18.721 1.544 28.082 1.591q286.995 0 573.99 0c8.331 0 16.709-0.421 24.993-1.217 13.245-1.217 14.041-0.374 12.777 13.292-0.305 3.127-0.479 6.76-0.479 10.433 0 0.545 0.004 1.088 0.011 1.631l-0.001-0.082c0 65.524 0 131.048 0 196.572-0.001 0.088-0.002 0.191-0.002 0.295 0 11.324 6.529 21.123 16.027 25.839l0.168 0.075c11.467 6.74 23.776 4.68 36.038 3.557 5.616-0.468 11.841-2.247 11.701 7.582-0.515 28.363 0 56.725-0.842 85.088-0.316 5.791-2.643 10.985-6.287 14.947l0.016-0.017q-120.424 121.407-241.69 242.486c-2.756 3.082-6.541 5.194-10.811 5.793l-0.094 0.011c-42.544 0.234-85.041 0.094-127.585 0.094zM436.343 667.482c-1.461 2.536-3.009 4.724-4.734 6.758l0.054-0.065c-29.158 28.409-58.504 56.491-87.381 85.134-23.401 22.98-45.96 46.428-68.613 70.204-6.74 7.020-13.432 4.212-19.704 0.842-3.282-2.010-5.565-5.374-6.077-9.296l-0.007-0.065c-0.421-48.301 0-96.601-0.515-145.089 0-6.693 1.498-8.939 8.425-8.893 43.995 0.374 87.989 0.328 132.031 0.421zM587.61 668.278l1.732-2.761c7.488 0.655 14.977 1.825 22.419 1.825 51.483 0 102.545 0 153.841-0.328 7.629 0 8.752 2.481 8.659 9.595q-0.983 69.783-0.749 139.566c0 6.459 1.872 11.888-6.225 14.696s-14.041 3.697-21.295-3.604c-50.875-51.483-102.358-101.983-153.607-152.905-1.612-1.818-3.18-3.801-4.632-5.871l-0.142-0.213zM188.709 812.009c-3.256-0.261-6.229-0.725-9.124-1.392l0.419 0.081c-10.671-3.136-21.155-6.974-31.92-9.641-26.116-6.412-52.419-11.982-78.442-18.721-4.127-2.034-7.071-5.923-7.76-10.547l-0.009-0.077c-0.655-31.966-0.328-63.886-0.608-95.852 0-5.85 1.357-8.893 7.769-8.846q56.163 0 112.327 0c5.897 0 8.471 1.872 8.471 8.237 0 43.199 0 86.445 0 129.644-0.242 2.682-0.639 5.108-1.194 7.473l0.071-0.359zM834.308 812.992v-13.198c0-40.672 0.328-81.343 0-122.015 0-8.284 1.638-10.811 10.063-10.718 35.664 0.468 71.281 0.655 106.945 0 9.595 0 11.42 2.34 11.139 11.607q-1.17 45.212 0 90.47c0 8.846-2.574 12.169-10.765 14.041-27.239 6.318-54.291 13.292-81.39 20.125-11.701 2.949-23.167 6.178-35.991 9.688zM292.471 600.18l-3.931 5.991h-15.726c-46.428 0-92.857 0-139.285 0-6.786 0-9.735-1.357-9.595-9.080 0.562-29.767 0.608-59.533 0.468-89.347 0-19.189-0.936-38.425-1.264-57.661 0.215-3.247 0.714-6.269 1.479-9.182l-0.075 0.336c3.306 1.265 6.163 2.842 8.76 4.752l-0.102-0.071q75.212 74.885 150.237 150.097c2.587 1.795 5.595 3.222 8.825 4.116l0.208 0.049zM731.81 605.936c3.183-4.259 3.885-5.476 4.68-6.459q62.997-61.78 125.947-123.653c9.361-9.361 17.738-19.189 26.865-28.55 2.742-2.312 5.807-4.422 9.069-6.218l0.292-0.147c0.674 3.023 1.221 6.686 1.525 10.417l0.020 0.3c0 3.604-0.796 7.254-0.796 10.858 0 44.697 0 89.393 0.328 134.043 0 8.331-2.902 9.361-10.156 9.361-45.352-0.281-90.704 0-136.103 0zM479.589 711.945l2.808 1.779c0 4.306 0 8.612 0 12.918-0.374 45.399-1.498 90.751-0.983 136.15 0.328 26.163 1.451 26.303-23.729 19.704-21.529-5.663-42.918-11.935-64.448-17.457-14.556-3.697-29.299-6.459-43.901-9.875-3.080-1.057-5.74-2.338-8.215-3.887l0.165 0.096c1.315-2.583 2.778-4.808 4.452-6.853l-0.053 0.066q61.873-62.061 123.981-123.887c3.042-3.136 6.599-5.85 9.922-8.752zM540.948 713.817l3.183-1.919c3.323 2.949 6.833 5.663 9.922 8.752q60.423 60.516 120.751 121.079c2.559 2.882 5.077 6.024 7.434 9.289l0.242 0.352-12.403 3.931-6.178 1.732-42.544 11.233c-22.185 5.991-44.51 11.607-66.507 18.113-11.373 3.37-13.573 2.2-13.432-9.361 0.562-40.672 1.123-81.343 1.264-122.015 0.234-13.76-1.123-27.473-1.732-41.187zM126.368 187.285c-20.078 0-39.595 0-59.112 0-7.535 0-5.523-5.85-5.523-10.437 0-56.163 0-111.906 0-167.882 0-8.565 1.732-11.748 10.811-11.279 6.494 0.369 14.093 0.579 21.74 0.579s15.245-0.21 22.789-0.625l-1.049 0.046c8.846-0.468 11.233 2.247 11.186 10.952-0.328 56.725 0 113.45 0 170.222-0.562 2.34-0.842 4.774-0.842 8.425zM898.615 187.285c-0.889-2.059-1.451-2.715-1.451-3.323q0-89.44-0.234-178.927c0-6.74 3.791-7.582 9.361-7.535 15.585 0 31.171 0.421 46.803 0 8.097 0 10.25 3.136 9.361 10.484-0.957 7.812-1.518 16.884-1.544 26.081v0.035c0.374 48.347 1.123 96.648 1.264 145.089-0.722 3.654-3.263 6.583-6.62 7.839l-0.072 0.024c-18.908 0.702-37.817 0.281-56.865 0.281z" />
<glyph unicode="&#xe905;" glyph-name="profnastil" horiz-adv-x="1355" d="M844.152 960c60.599-63.548 120.752-127.485 182.185-190.198 9.044-8.501 21.050-13.944 34.313-14.629l0.132-0.005c78.795-1.224 157.701-0.612 236.552-0.668 6.288 0 12.576 0.445 18.808 0 20.756-2.003 36.448-11.129 38.34-33.722 1.614-19.087-15.803-33.944-39.731-34.556-25.096-0.668-50.082 0-75.289 0-70.782 0-141.619-0.612-212.346 0.612-12.441 0.586-23.603 5.625-32.022 13.546l0.026-0.024q-83.469 85.472-164.879 173.282c-9.389 11.042-23.292 18.002-38.821 18.002-1.025 0-2.043-0.030-3.053-0.090l0.139 0.007c-66.33-0.89-132.66 0.556-198.935-1.169-15.151-0.9-28.705-7.088-38.986-16.725l0.034 0.032c-56.036-56.815-110.402-115.187-166.66-171.835-8.84-8.656-20.651-14.309-33.764-15.292l-0.181-0.011c-100.163-1.169-200.716-0.779-301.046-0.612-28.546 0-43.014 11.129-44.072 32.163-1.057 23.538 14.078 36.003 45.741 36.337 80.631 0 161.374 1.836 241.894-0.723 33.388-1.113 56.203 9.015 78.35 34.055 52.029 58.929 107.675 115.021 161.429 172.225zM0-13.195c16.694 17.083 36.782 21.424 60.265 21.146 84.137-0.946 168.33-1.113 252.466 0.39 15.047 0.887 28.497 7.081 38.645 16.719l-0.027-0.025c56.091 56.648 110.513 115.187 166.159 171.947 8.925 8.547 20.802 14.074 33.954 14.905l0.157 0.008q134.218 1.725 268.604 0c14.109-1.023 26.646-7.033 36.010-16.256l-0.007 0.007c55.201-56.203 108.454-114.297 163.767-170.388 10.095-9.59 23.501-15.779 38.335-16.685l0.172-0.008c78.795-1.558 157.59-0.668 236.385-0.89 1.002 0.030 2.181 0.046 3.365 0.046 9.158 0 18.080-1.010 26.661-2.925l-0.812 0.152c17.918-4.34 30.494-17.139 24.707-34.834-3.951-12.075-16.694-23.26-28.491-29.993-8.124-4.73-20.979-1.336-31.718-1.336-85.083 0-170.166 0.501-255.193-0.445-1.255-0.096-2.718-0.15-4.194-0.15-17.64 0-33.462 7.788-44.214 20.113l-0.060 0.070q-78.962 86.085-161.374 169.053c-9.617 8.992-22.349 14.759-36.413 15.519l-0.147 0.006c-67.109 1.502-134.33 1.614-201.439 0-15.024-1.128-28.387-7.452-38.471-17.158l0.020 0.019c-55.646-55.924-108.844-113.963-164.323-169.888-10.052-9.626-23.454-15.827-38.289-16.686l-0.163-0.008c-96.713-1.391-193.426 0-290.139-1.224-22.258 0-39.898 4.897-54.032 21.869zM0 368.537c12.743 17.195 29.659 22.258 50.972 22.258 83.469-1.002 166.938 0.668 249.962-1.057 24.874-0.501 41.178 7.568 57.594 25.375 51.528 55.757 104.448 110.569 157.979 164.713 9.008 8.567 20.989 14.083 34.243 14.851l0.146 0.007q135.721 1.781 271.442 0c12.48-0.678 23.651-5.787 32.075-13.766l-0.023 0.022q82.968-84.248 163.488-170.834c10.912-12.652 26.963-20.612 44.873-20.612 1.402 0 2.792 0.049 4.17 0.145l-0.186-0.010c79.741 1.057 159.482 0.556 239.278 0.39 30.216 0 44.517-11.519 44.517-34.278-0.39-21.312-14.412-32.887-43.181-32.998-94.988-0.445-189.92-0.668-284.908 0.501-12.603 1.154-23.718 6.747-31.93 15.18l-0.011 0.011c-56.37 57.538-111.292 116.857-167.884 174.005-9.565 9.145-22.258 15.089-36.319 16.071l-0.185 0.010q-99.384 2.337-198.879 0c-14.225-0.841-26.949-6.659-36.59-15.721l0.030 0.028c-57.093-57.149-112.016-116.189-168.886-173.338-9.594-9.286-22.411-15.292-36.615-16.185l-0.167-0.008c-98.549-1.28-197.099-0.445-295.648-0.89-21.257 0-38.952 4.897-49.581 24.651z" />
<glyph unicode="&#xe906;" glyph-name="roll" horiz-adv-x="1149" d="M730.030 960c5.386-2.047 11.693-3.666 18.228-4.576l0.468-0.053c40.656-1.306 74.309-19.111 104.222-43.92 37.843-30.995 63.673-75.431 70.171-125.922l0.102-0.973c7.656-56.028-6.647-106.24-47.482-147.193q-201.085-201.203-402.288-402.347c-27.955-27.895-54.901-56.978-84.695-82.737-41.072-35.611-90.809-48.431-142.86-34.009-53.417 14.66-85.942 51.399-99.83 106.834-13.414 53.417 18.815 109.386 57.868 129.15 16.218 8.447 35.306 13.713 55.546 14.475l0.245 0.007c14.374-0.442 25.978-11.717 26.941-25.911l0.005-0.086c0-12.761-13.888-25.996-28.37-27.065-34.305-2.433-53.061-16.381-62.142-49.381-6.885-24.928 1.603-47.482 17.271-66.949 23.741-29.023 53.417-39.291 91.818-31.694 50.307 10.739 88.171 52.837 92.384 104.459l0.027 0.416c0.106 2.121 0.166 4.606 0.166 7.106 0 62.007-37.158 115.335-90.421 138.932l-0.969 0.383c-73.537 31.694-164.405-1.721-209.809-58.224-17.431-20.92-30.875-45.836-38.758-73.111l-0.355-1.435c-4.123-15.078-6.493-32.391-6.493-50.257 0-10.837 0.872-21.471 2.549-31.835l-0.152 1.136c13.068-96.695 79.266-175.167 167.794-205.774l1.774-0.534c24.866-8.691 53.531-13.711 83.369-13.711 18.050 0 35.67 1.837 52.685 5.334l-1.681-0.289c73.828 13.484 137.286 50.714 183.69 103.34l0.301 0.348c28.555 31.792 50.88 69.82 64.653 111.728l0.634 2.228c9.653 28.461 15.271 61.247 15.372 95.33v0.048c-0.016 0.366-0.025 0.796-0.025 1.228 0 8.457 3.537 16.087 9.213 21.492l0.012 0.011q236.102 235.924 472.026 472.026c7.478 7.478 15.847 13.117 27.124 8.665 11.054-4.483 18.708-15.135 18.708-27.575 0-0.301-0.004-0.6-0.013-0.899l0.001 0.044c-3.442-98.584-35.611-185.594-106.003-256.223q-236.874-237.883-474.401-474.816c-40.123-40.778-89.248-72.572-144.165-92.172l-2.672-0.832c-25.365-8.667-54.783-14.708-85.266-16.908l-1.15-0.067c-8.956-0.589-19.417-0.925-29.956-0.925-17.629 0-35.038 0.94-52.18 2.772l2.13-0.185c-32.928 3.536-62.911 13.319-89.707 28.155l1.213-0.616c-62.040 31.36-110.647 81.711-139.004 143.31l-0.77 1.865c-12.701 27.48-22.494 56.147-22.494 87.188-0.868 6.957-2.493 13.272-4.816 19.239l0.186-0.543v39.172c1.615 4.475 3.269 10.216 4.602 16.079l0.205 1.074c2.196 11.87 2.137 24.394 5.935 35.611 13.311 40.29 34.882 74.742 62.86 102.804l-0.006-0.006c159.894 160.25 319.432 320.501 480.217 479.623 35.898 37.028 85.226 60.855 140.108 63.605l0.497 0.020c7.055 1.019 13.36 2.594 19.402 4.728l-0.706-0.217zM448.82 285.939l3.146-1.306c5.935 6.588 12.227 13.414 18.637 19.824q182.864 183.101 366.261 366.083c17.806 17.806 31.694 39.054 35.196 63.803 1.236 7.105 1.942 15.287 1.942 23.634 0 36.467-13.485 69.785-35.74 95.24l0.145-0.169c-42.911 49.856-98.168 63.685-160.25 49.381-37.541-9.128-69.785-28.074-94.917-53.962l-0.046-0.048q-180.074-179.243-360.563-358.011c-2.815-3.475-5.502-7.353-7.891-11.427l-0.24-0.443c63.269 10.921 116.211-4.57 162.090-42.733s69.561-89.443 72.231-149.864zM1091.365 708.229l-3.739 2.137c-2.436-1.289-4.537-2.728-6.457-4.372l0.047 0.039c-10.209-11.099-19.824-22.791-30.448-33.475q-175.029-175.504-350.414-350.83c-16.619-16.5-30.863-31.872-30.744-57.571 0-16.144-5.223-32.347-8.606-51.28 3.807 1.755 7.081 3.736 10.103 6.031l-0.132-0.096c12.82 13.71 24.868 28.133 38.045 41.546 93.598 94.014 186.84 188.324 281.388 281.328 39.146 37.439 70.214 82.973 90.559 133.947l0.902 2.562c3.68 9.674 6.291 19.942 9.496 30.032z" />
<glyph unicode="&#xe907;" glyph-name="roof" horiz-adv-x="2138" d="M2137.588-3.37c-3.393-3.393-7.994-6.184-10.030-10.256-21.718-44.794-81.368-70.961-131.818-30.164s-100.899 83.932-150.821 126.237c-93.735 79.181-187.169 158.362-280.98 237.769-22.268 17.075-36.482 43.689-36.482 73.623 0 1.159 0.021 2.313 0.064 3.462l-0.005-0.166c1.357 119.45 0.528 238.976 0.528 362.574-27.6 0-54.522 0.98-81.293-0.98-4.223 0-10.557-13.423-10.633-20.738-0.603-38.384 0.528-76.843 1.056-115.227 0.603-46.377-16.666-77.371-53.843-92.378-38.987-15.761-72.545-4.826-102.634 23.151-67.417 62.666-135.739 124.578-203.081 187.32-10.256 9.502-16.59 9.954-27.6 0q-205.418-178.195-411.591-356.089c-144.26-124.955-288.144-250.363-433.007-374.941-26.515-23.57-55.95-45.058-87.346-63.575l-2.619-1.429c-32.954-18.551-79.86 0-100.371 31.748-28.505 44.643-13.876 91.624 20.964 121.562q197.726 170.352 394.774 341.082 216.805 186.943 433.837 373.886c43.286 37.253 85.742 75.411 129.48 112.136 14.931 11.403 31.915 22.882 49.545 33.39l2.489 1.374h35.82c15.082-9.049 31.823-16.138 44.643-27.6 38.233-33.935 74.807-69.755 112.211-104.594 5.58-5.128 12.217-9.2 21.869-16.289 0.849 6.616 1.419 14.453 1.58 22.392l0.004 0.231c-3.393 67.191 33.709 104.67 100.975 103.991 81.066-0.83 162.133-0.452 243.199 0 57.991 0 99.24-38.309 99.089-96.299 0-128.801-1.961-257.678-2.036-386.479-0.001-0.113-0.002-0.248-0.002-0.382 0-11.76 4.563-22.455 12.015-30.41l-0.023 0.025c76.165-65.532 154.667-128.198 230.078-194.936 65.004-57.764 141.395-103.388 192.146-176.687z" />
<glyph unicode="&#xe908;" glyph-name="sandwich" horiz-adv-x="1022" d="M468.572 960h18.142c1.082-0.82 2.326-1.509 3.664-2.008l0.101-0.033q59.598-10.296 119.195-20.637 177.251-29.935 354.502-59.688c23.721-3.946 47.17-7.393 57.738-33.518v-18.142c-9.071-11.248-16.736-23.721-27.214-33.609-43.088-41.229-87.083-81.822-130.942-122.642-3.075-2.244-6.589-4.196-10.334-5.691l-0.325-0.114 3.447-4.536c37.736-6.395 75.336-13.607 113.39-18.959 23.132-3.402 43.678-9.071 52.205-34.062v-15.875c-8.028-10.613-14.786-22.678-24.265-31.749-41.637-40.004-84.090-79.191-126.225-118.651-5.397-5.035-10.749-10.16-17.417-16.419 5.579-1.27 9.071-2.268 12.654-2.857 36.013-6.168 71.889-13.199 108.083-18.142 22.043-2.903 38.462-11.339 47.17-32.429v-15.875c-5.669-8.663-9.933-18.868-17.281-25.762q-201.698-189.542-403.667-378.359c-8.53-8.867-20.497-14.375-33.75-14.375-5.036 0-9.886 0.795-14.432 2.267l0.331-0.093c-42.544 11.384-85.314 22.179-127.994 33.246q-196.391 50.889-392.737 102.051c-8.337 2.153-15.538 6.206-21.39 11.682l0.027-0.025c-18.142 17.916-14.242 44.131 8.3 61.503 32.883 25.399 65.902 50.572 98.876 75.88 20.456 15.648 40.82 31.386 62.5 48.032-3.628 1.27-5.307 1.996-7.076 2.449l-140.059 36.285c-13.607 3.538-25.082 10.205-30.57 24.175-7.438 19.049-1.95 35.604 17.054 50.254q60.641 46.671 121.372 93.116c12.7 9.752 25.354 19.594 39.55 30.525l-13.652 3.765c-44.857 11.566-89.759 22.995-134.616 34.697-22.769 6.123-35.060 23.449-32.112 45.129 1.769 12.836 9.615 21.589 19.548 29.028q174.666 133.936 348.878 267.6c32.566 24.991 66.174 48.44 99.329 72.569zM896.958 334.86c-1.121 0.744-2.405 1.415-3.76 1.947l-0.141 0.049c-35.287 6.078-70.528 12.337-105.906 17.78-4.864-0.161-9.219-2.213-12.379-5.44l-0.003-0.003q-86.72-80.779-172.897-161.921c-8.706-9.013-20.9-14.609-34.4-14.609-5.044 0-9.905 0.781-14.47 2.229l0.339-0.093c-88.671 23.222-177.387 45.9-265.922 68.85-1.698 0.642-3.661 1.013-5.71 1.013-4.092 0-7.839-1.481-10.733-3.936l0.024 0.020c-45.673-35.423-91.528-70.483-137.428-105.589-2.437-1.446-5.266-2.777-8.224-3.837l-0.348-0.109c5.397-2.404 6.35-2.993 7.348-3.266q206.823-53.475 413.51-107.131c2.059-0.739 4.434-1.166 6.909-1.166 6.267 0 11.894 2.739 15.75 7.086l0.019 0.022q137.338 129.4 275.265 258.166c17.689 16.464 35.151 32.974 53.157 49.937zM897.366 571.663c-1.29 0.8-2.784 1.547-4.346 2.157l-0.19 0.065c-33.064 5.579-66.265 10.613-99.193 16.918-1.549 0.41-3.327 0.645-5.161 0.645-6.265 0-11.889-2.75-15.728-7.108l-0.020-0.023c-56.559-53.429-113.617-106.36-170.039-159.97-15.33-14.559-31.749-18.142-51.842-12.745-86.675 22.678-173.577 44.993-260.252 68.034-2.17 0.71-4.667 1.12-7.259 1.12-6.286 0-12.009-2.408-16.298-6.352l0.017 0.016c-35.105-27.214-70.619-54.427-105.951-81.641l-34.108-26.080c4.536-1.497 6.758-2.495 9.071-3.13q205.644-53.339 411.287-106.813c1.741-0.601 3.747-0.949 5.834-0.949 5.585 0 10.589 2.486 13.966 6.412l0.020 0.024q128.811 121.1 257.939 241.838c23.993 22.179 47.624 44.403 72.252 67.58z" />
<glyph unicode="&#xe909;" horiz-adv-x="3711" d="M24.139 527.476h46.305l51.354-82.592 51.748 82.592h46.305v-195.318h-42.992v127.556l-55.061-83.46h-1.104l-54.43 82.592v-126.689h-42.124z" />
<glyph unicode="&#xe90a;" horiz-adv-x="3711" d="M326.424 528.896h39.442l83.775-196.738h-44.728l-17.907 44.096h-82.592l-17.907-43.781h-43.781zM371.704 413.882l-26.032 63.108-25.953-63.108z" />
<glyph unicode="&#xe90b;" horiz-adv-x="3711" d="M473.307 527.476h79.516c46.621 0 74.783-27.61 74.783-68.077 0-45.201-35.104-68.63-78.885-68.63h-32.737v-58.611h-42.677zM550.377 428.949c21.457 0 33.999 12.858 33.999 30.213 0 19.248-13.331 29.582-34.867 29.582h-33.526v-59.794z" />
<glyph unicode="&#xe90c;" horiz-adv-x="3711" d="M652.533 527.476h42.913v-85.353l78.885 85.353h51.985l-79.2-82.829 83.223-112.489h-51.669l-60.82 83.144-22.64-23.665v-59.716h-42.677z" />
<glyph unicode="&#xe90d;" horiz-adv-x="3711" d="M849.271 527.476h147.356v-38.18h-104.601v-39.442h92.058v-38.18h-92.058v-41.099h106.021v-38.18h-148.776z" />
<glyph unicode="&#xe90e;" horiz-adv-x="3711" d="M1074.802 487.876h-59.4v39.442h161.871v-39.442h-59.479v-155.718h-42.992z" />
<glyph unicode="&#xe90f;" horiz-adv-x="3711" d="M24.139 285.301h162.975v-195.397h-42.913v156.586h-77.070v-156.586h-42.992z" />
<glyph unicode="&#xe910;" horiz-adv-x="3711" d="M227.109 285.301h79.831c46.621 0 74.783-27.61 74.783-68.077 0-45.201-35.182-68.708-78.885-68.708h-32.737v-58.611h-42.992zM304.1 186.932c21.535 0 34.078 12.858 34.078 30.134 0 19.327-13.41 29.582-34.867 29.582h-33.21v-59.716z" />
<glyph unicode="&#xe911;" horiz-adv-x="3711" d="M397.894 187.642c0 0.014 0 0.030 0 0.047 0 55.809 45.242 101.051 101.051 101.051 1.082 0 2.16-0.017 3.233-0.051l-0.157 0.004c55.69-0.157 100.775-45.339 100.775-101.051 0-55.809-45.242-101.051-101.051-101.051-0.097 0-0.194 0-0.291 0h0.015c-0.989-0.035-2.15-0.055-3.317-0.055-55.373 0-100.262 44.889-100.262 100.262 0 0.297 0.001 0.593 0.004 0.889v-0.045zM560.632 187.642c0.023 0.612 0.035 1.33 0.035 2.051 0 32.719-26.489 59.251-59.192 59.321h-0.007c-34.63 0-58.611-27.294-58.611-61.372-0.024-0.635-0.038-1.381-0.038-2.13 0-32.72 26.491-59.253 59.195-59.321h0.006c34.394 0 58.611 27.373 58.611 61.451z" />
<glyph unicode="&#xe912;" horiz-adv-x="3711" d="M722.030 82.094v21.22c-60.347 0-96.87 37.391-96.87 86.773s36.839 84.801 96.87 84.801v17.986h43.15v-17.907c59.716 0 96.791-35.971 96.791-85.116s-36.524-86.773-96.791-86.773v-21.22zM722.030 236.787c-31.554 0-52.774-18.696-52.774-47.331s21.22-47.331 52.774-47.331zM765.18 141.573c31.554 0 52.458 18.459 52.458 47.331s-20.983 47.331-52.458 47.331z" />
<glyph unicode="&#xe913;" horiz-adv-x="3711" d="M1058.394 89.904h-42.44v128.187l-85.116-128.187h-40.468v195.397h42.44v-128.108l85.984 128.108h39.916z" />
<glyph unicode="&#xe914;" horiz-adv-x="3711" d="M1263.809 285.301v-195.397h-42.992v156.586h-56.402v-14.751c0-115.014-18.696-144.359-63.108-144.359-8.071 0.097-15.874 1.011-23.4 2.664l0.76-0.14 2.84 35.498c1.964-0.352 4.225-0.553 6.533-0.553 0.061 0 0.121 0 0.182 0h-0.009c23.113 0 36.287 14.751 36.287 119.983v40.468z" />
<glyph unicode="&#xe915;" horiz-adv-x="3711" d="M1303.725 285.301h42.992v-66.815h41.651c45.28 0 71.469-25.085 71.469-63.108 0-40.231-28.477-65.632-74.23-65.632h-81.882zM1346.717 182.041v-53.326h38.259c21.22 0 32.106 9.229 32.106 27.373 0 16.487-10.886 25.953-32.422 25.953z" />
<glyph unicode="&#xe916;" horiz-adv-x="3711" d="M1661.86 647.854l-485.692 284.694c-4.526 2.658-9.968 4.227-15.777 4.227s-11.251-1.57-15.926-4.308l0.149 0.081-449.405-263.159c-0.755-0.46-1.254-1.275-1.262-2.208v-67.289c0-0.007 0-0.015 0-0.023 0-1.394 1.13-2.524 2.524-2.524 0.465 0 0.9 0.126 1.274 0.345l-0.012-0.006 462.5 271.047 454.138-266.156v-61.845h-56.481c-17.427 0-31.554-14.127-31.554-31.554v0-418.088c0-0.784 0.636-1.42 1.42-1.42v0h60.268c0.784 0 1.42 0.636 1.42 1.42v0 386.534h56.481c17.427 0 31.554 14.127 31.554 31.554v0 111.622c-0.067 11.485-6.259 21.509-15.473 26.977l-0.146 0.080z" />
<glyph unicode="&#xe917;" horiz-adv-x="3711" d="M1795.57 395.66c-0.004 0.213-0.006 0.464-0.006 0.715 0 21.564 17.305 39.086 38.785 39.437h0.033c0.121 0.001 0.264 0.002 0.407 0.002 11.597 0 22.049-4.907 29.391-12.759l0.021-0.023-3.786-3.865c-6.515 7.038-15.799 11.431-26.109 11.438h-0.001c-18.306-1.268-32.675-16.429-32.675-34.946s14.369-33.678 32.566-34.94l0.11-0.006c10.629 0.010 20.17 4.66 26.71 12.032l0.032 0.037 3.865-3.708c-7.526-8.346-18.376-13.57-30.447-13.57-0.14 0-0.279 0.001-0.418 0.002h0.021c-21.284 0.027-38.528 17.287-38.528 38.575 0 0.555 0.012 1.107 0.035 1.656l-0.003-0.078z" />
<glyph unicode="&#xe918;" horiz-adv-x="3711" d="M1878.083 434.471h55.219v-5.364h-49.461v-30.449h44.491v-5.364h-44.491v-31.554h50.013v-5.285h-55.771z" />
<glyph unicode="&#xe919;" horiz-adv-x="3711" d="M1971.166 429.107h-27.057v5.364h59.558v-5.364h-27.057v-72.258h-5.759z" />
<glyph unicode="&#xe91a;" horiz-adv-x="3711" d="M2018.734 434.471h5.759v-31.159h22.955c14.751 0 28.241-6.311 28.241-22.324s-11.202-24.139-27.688-24.139h-29.266zM2046.975 362.134c13.963 0 22.719 6.153 22.719 18.617s-8.993 17.197-23.665 17.197h-21.851v-35.814z" />
<glyph unicode="&#xe91b;" horiz-adv-x="3711" d="M1832.409 229.845h-3.708c-0.685-0.050-1.484-0.079-2.29-0.079-18.385 0-33.289 14.904-33.289 33.289s14.904 33.289 33.289 33.289c0.806 0 1.605-0.029 2.397-0.085l-0.106 0.006h3.708v7.888h5.601v-7.888h3.629c0.876 0.083 1.894 0.13 2.923 0.13 18.167 0 32.895-14.728 32.895-32.895 0-0.184-0.002-0.369-0.005-0.552v0.028c0-18.143-13.016-33.131-35.735-33.131h-3.708v-8.677h-5.759zM1832.409 235.051v56.008h-3.708c-19.011 0-29.661-11.754-29.661-28.083s10.649-27.61 29.661-27.925zM1841.796 235.051c19.090 0 29.739 11.675 29.739 27.925s-10.649 27.688-29.739 28.083h-3.786v-56.008z" />
<glyph unicode="&#xe91c;" horiz-adv-x="3711" d="M1891.809 301.709h5.759v-69.339l50.486 69.339h5.68v-77.622h-5.837v69.261l-50.328-69.261h-5.759z" />
<glyph unicode="&#xe91d;" horiz-adv-x="3711" d="M1974.006 301.709h28.162c17.118 0 28.872-8.756 28.872-23.665s-14.12-24.691-30.292-24.691h-20.747v-28.951h-5.759zM2001.064 258.322c14.436 0 24.139 7.888 24.139 19.327s-9.466 18.696-23.665 18.696h-21.535v-38.417z" />
<glyph unicode="&#xe91e;" horiz-adv-x="3711" d="M2045.318 301.709h5.68l31.159-45.911 31.159 45.911h5.443v-77.622h-5.759v67.367l-30.765-44.649h-0.394l-30.844 44.649v-67.367h-5.522z" />
<glyph unicode="&#xe91f;" horiz-adv-x="3711" d="M2138.875 301.709h55.219v-5.364h-49.382v-30.528h44.412v-5.364h-44.412v-31.554h49.934v-5.285h-55.692z" />
<glyph unicode="&#xe920;" horiz-adv-x="3711" d="M2210.344 301.709h5.759v-35.892h49.697v35.892h6.074v-77.622h-5.759v36.366h-49.697v-36.366h-5.759z" />
<glyph unicode="&#xe921;" horiz-adv-x="3711" d="M2291.911 301.709h5.759v-35.892h49.618v35.892h5.759v-77.622h-5.759v36.366h-49.618v-36.366h-5.759z" />
<glyph unicode="&#xe922;" horiz-adv-x="3711" d="M2373.399 301.709h5.759v-31.554h22.955c14.751 0 28.241-6.311 28.241-22.324s-11.202-24.139-27.688-24.139h-29.266zM2401.639 229.372c13.963 0 22.719 6.153 22.719 18.617s-8.914 17.197-23.665 17.197h-21.535v-35.814zM2441.082 301.709h5.759v-77.622h-5.759z" />
<glyph unicode="&#xe923;" horiz-adv-x="3711" d="M2492.199 263.607l-29.818 38.101h6.705l26.505-34.157 26.347 34.157h6.784l-29.739-37.943 30.844-39.442h-6.863l-27.61 35.814-27.531-35.814h-6.626z" />
<glyph unicode="&#xe924;" horiz-adv-x="3711" d="M1799.040 168.867h5.443l31.081-45.832 31.159 45.832h5.443v-77.543h-5.759v67.367l-30.686-44.649h-0.473l-30.686 44.649v-67.367h-5.522z" />
<glyph unicode="&#xe925;" horiz-adv-x="3711" d="M1922.021 169.419h5.522l36.129-78.096h-6.311l-9.861 21.693h-45.832l-9.861-21.693h-5.995zM1945.056 118.223l-20.273 45.043-20.51-44.885z" />
<glyph unicode="&#xe926;" horiz-adv-x="3711" d="M1977.319 168.867h48.435v-5.601h-42.677v-72.258h-5.759z" />
<glyph unicode="&#xe927;" horiz-adv-x="3711" d="M2056.204 169.419h5.522l36.129-78.096h-6.311l-9.861 21.693h-45.753l-9.861-21.693h-5.995zM2079.238 118.223l-20.352 45.043-20.51-44.885z" />
<glyph unicode="&#xe928;" horiz-adv-x="3711" d="M2102.273 102.367l3.708 4.339c6.953-7.113 16.645-11.524 27.368-11.524 0.252 0 0.502 0.002 0.753 0.007l-0.037-0.001c0.65-0.084 1.402-0.131 2.166-0.131 9.492 0 17.259 7.385 17.868 16.723l0.003 0.053c0 9.939-8.441 15.777-22.955 15.777h-8.441v5.127h8.598c11.754 0 20.668 5.995 20.668 16.408 0 8.993-7.888 15.777-19.248 15.777-9.059-0.008-17.343-3.321-23.714-8.797l0.048 0.040-3.471 4.418c6.979 5.945 16.1 9.561 26.066 9.561 0.404 0 0.807-0.006 1.208-0.018l-0.059 0.001c14.988 0 25.006-8.756 25.006-20.747-0.102-8.918-6.302-16.359-14.621-18.354l-0.13-0.026c9.427-1.638 16.553-9.604 16.88-19.293l0.001-0.034c0-11.99-10.728-21.693-26.269-21.693-0.111-0.001-0.242-0.002-0.373-0.002-12.032 0-22.962 4.718-31.042 12.404l0.019-0.018z" />
<glyph unicode="&#xe929;" horiz-adv-x="3711" d="M2175.872 168.867h5.759v-69.261l50.486 69.261h5.601v-77.543h-5.759v69.261l-50.328-69.261h-5.759z" />
<glyph unicode="&#xe92a;" horiz-adv-x="3711" d="M2258.069 168.867h5.916v-35.892h49.618v35.892h5.601v-77.543h-5.837v36.366h-49.382v-36.366h-5.759z" />
<glyph unicode="&#xe92b;" horiz-adv-x="3711" d="M2336.165 130.135c0.615 21.085 17.855 37.943 39.032 37.943 21.566 0 39.048-17.482 39.048-39.048s-17.482-39.048-39.048-39.048c-0.050 0-0.1 0-0.15 0h0.008c-21.504 0.081-38.906 17.532-38.906 39.048 0 0.388 0.006 0.776 0.017 1.161l-0.001-0.057zM2408.187 130.135c-1.030 17.421-15.41 31.159-32.998 31.159-18.254 0-33.053-14.798-33.053-33.053s14.798-33.053 33.053-33.053c0.036 0 0.073 0 0.109 0h-0.006c18.256 0.338 32.925 15.216 32.925 33.521 0 0.501-0.011 1-0.033 1.496l0.002-0.071z" />
<glyph unicode="&#xe92c;" horiz-adv-x="3711" d="M2431.063 168.867h32.027c15.225 0 25.164-7.494 25.164-19.248 0.001-0.068 0.001-0.149 0.001-0.23 0-8.429-5.462-15.582-13.040-18.112l-0.135-0.039c9.308-2.445 17.512-7.888 17.512-18.775 0-12.937-11.123-21.141-27.846-21.141h-33.684zM2462.617 133.054c11.596 0 19.958 5.68 19.958 16.25 0 8.52-7.021 14.278-19.406 14.278h-26.19v-30.528zM2465.141 96.609c13.331 0 21.772 6.074 21.772 15.777s-8.362 15.067-23.665 15.067h-26.269v-31.554z" />
<glyph unicode="&#xe92d;" horiz-adv-x="3711" d="M2747.863 76.493l446.96-85.195v64.764c0.22 8.76 7.374 15.777 16.167 15.777 0.029 0 0.059 0 0.088 0h443.484v376.121l-219.536 126.767-225.925-130.475c-2.263-1.329-4.984-2.114-7.888-2.114s-5.626 0.785-7.963 2.154l0.074-0.040-225.925 130.475-219.299-126.767v-371.467z" />
<glyph unicode="&#xe92e;" horiz-adv-x="3711" d="M3678.543 471.626l-235.549 135.76c-2.281 1.252-4.999 1.988-7.888 1.988s-5.607-0.736-7.975-2.032l0.087 0.043-226.004-130.159-225.689 130.238c-2.281 1.252-4.999 1.988-7.888 1.988s-5.607-0.736-7.975-2.032l0.087 0.043-235.865-135.839c-4.762-2.928-7.889-8.111-7.889-14.023 0-0.062 0-0.124 0.001-0.185v0.009-394.423c-0.001-0.064-0.001-0.14-0.001-0.216 0-7.794 5.652-14.269 13.081-15.548l0.094-0.013 479.066-91.585c0.437-0.039 0.946-0.061 1.459-0.061s1.022 0.022 1.525 0.065l-0.065-0.005c8.713 0 15.777 7.064 15.777 15.777v0 68.156h443.489c8.975 0 16.25 7.275 16.25 16.25v0 401.601c0 0.011 0 0.023 0 0.036 0 6.047-3.303 11.323-8.203 14.121l-0.080 0.042zM3654.247 72.312h-443.647c-0.025 0-0.054 0-0.084 0-8.793 0-15.946-7.017-16.166-15.757v-64.784l-446.486 84.722v371.467l219.299 126.767 226.004-130.475c2.263-1.329 4.984-2.114 7.888-2.114s5.626 0.785 7.963 2.154l-0.074-0.040 225.925 130.475 219.378-126.767z" />
<glyph unicode="&#xe92f;" horiz-adv-x="3711" d="M3460.585 237.97h-12.227l-36.997-70.996c-2.533-6.049-8.404-10.221-15.25-10.221-0.91 0-1.803 0.074-2.673 0.216l0.095-0.013h-15.777l50.013 94.661c3.684 5.726 10.025 9.464 17.238 9.464 0.624 0 1.242-0.028 1.852-0.083l-0.079 0.006h25.085c0.488 0.064 1.053 0.1 1.626 0.1 7.319 0 13.253-5.933 13.253-13.253 0-0.396-0.017-0.788-0.051-1.176l0.004 0.050v-89.613h-11.044c-0.563-0.085-1.212-0.134-1.873-0.134-7.276 0-13.174 5.898-13.174 13.174 0 0.436 0.021 0.867 0.063 1.292l-0.004-0.054zM3088.881 262.424c-0.399 0.011-0.87 0.017-1.341 0.017-29.156 0-52.806-23.573-52.931-52.7v-0.012c1.144-29.113 25.023-52.281 54.312-52.281s53.168 23.168 54.309 52.177l0.003 0.104c-0.124 29.14-23.774 52.714-52.931 52.714-0.499 0-0.997-0.007-1.493-0.021l0.073 0.002zM3088.881 179.595c-15.922 0.258-28.729 13.225-28.729 29.184 0 0.334 0.006 0.667 0.017 0.998l-0.001-0.048c0 15.858 12.856 28.714 28.714 28.714s28.714-12.856 28.714-28.714v0c0.010-0.283 0.015-0.616 0.015-0.95 0-15.959-12.808-28.926-28.705-29.183h-0.024zM3546.412 226.374h-13.726v20.352c0.032 0.343 0.050 0.743 0.050 1.146 0 7.319-5.933 13.253-13.253 13.253-0.63 0-1.249-0.044-1.855-0.129l0.070 0.008h-11.044v-89.849c-0.027-0.319-0.042-0.69-0.042-1.065 0-7.406 6.004-13.41 13.41-13.41 0.627 0 1.244 0.043 1.848 0.126l-0.070-0.008h22.324c24.77 0 40.152 13.489 40.152 35.34s-14.673 34.236-38.022 34.236zM3544.992 180.305h-12.306v22.955h12.306c8.441 0 12.7-3.708 12.7-11.044s-4.418-11.912-12.858-11.912zM2915.493 261.004h-59.873c-0.387 0.039-0.837 0.061-1.292 0.061-7.537 0-13.647-6.11-13.647-13.647 0-0.606 0.039-1.202 0.116-1.787l-0.007 0.069v-88.587h26.032v80.778h37.391v-66.736c-0.032-0.347-0.050-0.749-0.050-1.157 0-7.363 5.969-13.331 13.331-13.331 0.658 0 1.304 0.048 1.937 0.14l-0.072-0.009h10.965v89.928c0.030 0.337 0.048 0.729 0.048 1.126 0 7.319-5.933 13.253-13.253 13.253-0.573 0-1.137-0.036-1.691-0.107l0.066 0.007zM3223.853 255.956v13.253h-11.044c-0.546 0.080-1.175 0.126-1.816 0.126-7.276 0-13.174-5.898-13.174-13.174 0-0.072 0.001-0.144 0.002-0.215v0.011c-28.32-2.13-46.542-19.248-46.542-43.86s18.222-42.282 46.542-44.491v-13.174h26.111v13.174c28.241 2.209 46.384 19.563 46.384 44.491s-18.222 41.73-46.463 43.86zM3177.232 212.096c0 11.754 7.257 19.090 20.51 20.747v-42.045c-0.005 0-0.010 0-0.015 0-11.327 0-20.51 9.183-20.51 20.51 0 0.277 0.006 0.554 0.016 0.828l-0.001-0.039zM3244.205 212.096c0.012-0.259 0.018-0.563 0.018-0.868 0-11.263-9.113-20.397-20.367-20.431h-0.003v42.045c13.174-1.735 20.352-8.993 20.352-20.747zM3336.658 251.538l-31.554-50.407v45.516c0.036 0.368 0.057 0.794 0.057 1.226 0 7.319-5.933 13.253-13.253 13.253-0.632 0-1.254-0.044-1.862-0.13l0.070 0.008h-11.044v-103.891h25.48l40.152 63.739v-49.697c-0.028-0.326-0.044-0.705-0.044-1.088 0-7.363 5.969-13.331 13.331-13.331 0.684 0 1.355 0.051 2.011 0.151l-0.074-0.009h10.886v104.128h-15.067c-0.496 0.043-1.074 0.067-1.657 0.067-7.222 0-13.572-3.733-17.227-9.374l-0.049-0.080zM2990.907 260.925h-26.032c-0.309 0.025-0.67 0.039-1.034 0.039-7.537 0-13.647-6.11-13.647-13.647 0-0.542 0.032-1.076 0.093-1.602l-0.006 0.064v-88.666h26.032v33.999h14.751c0.733-0.055 1.588-0.086 2.45-0.086 19.213 0 34.788 15.575 34.788 34.788 0 0.197-0.002 0.393-0.005 0.589v-0.030c0 20.352-15.382 34.63-37.391 34.63zM3002.187 226.374c0-7.888-4.496-12.069-13.095-12.069h-12.937v23.665h13.016c8.441 0 13.016-3.708 13.016-11.596zM3288.459 375.071c0.035 0.369 0.054 0.797 0.054 1.23 0 7.711-6.251 13.963-13.963 13.963-0.659 0-1.307-0.046-1.942-0.134l0.073 0.008h-26.505c-0.417 0.028-0.904 0.045-1.394 0.045-7.711 0-14.485-4.008-18.353-10.055l-0.052-0.087-52.774-99.789h16.96c0.823-0.138 1.771-0.216 2.737-0.216 7.231 0 13.433 4.402 16.074 10.672l0.043 0.115 9.072 18.775h42.203v-14.278c-0.035-0.369-0.054-0.797-0.054-1.23 0-7.711 6.251-13.963 13.963-13.963 0.659 0 1.307 0.046 1.942 0.134l-0.073-0.008h11.596zM3261.007 365.763v-33.053h-30.134l17.197 33.053zM3382.647 365.763h-12.858l-39.442-74.783c-2.66-6.381-8.847-10.784-16.063-10.784-0.957 0-1.897 0.078-2.812 0.227l0.1-0.013h-17.039l52.853 99.789c3.879 6.063 10.577 10.025 18.201 10.025 0.674 0 1.341-0.031 1.999-0.092l-0.085 0.006h26.505c0.561 0.080 1.21 0.126 1.869 0.126 7.711 0 13.963-6.251 13.963-13.963 0-0.433-0.020-0.861-0.058-1.284l0.004 0.054v-94.661h-11.675c-0.561-0.080-1.21-0.126-1.869-0.126-7.711 0-13.963 6.251-13.963 13.963 0 0.433 0.020 0.861 0.058 1.284l-0.004-0.054zM3504.366 365.763h-12.937l-39.442-74.783c-2.608-6.385-8.77-10.802-15.964-10.802-0.993 0-1.966 0.084-2.913 0.246l0.102-0.014h-16.724l52.853 99.789c3.879 6.063 10.577 10.025 18.201 10.025 0.674 0 1.341-0.031 1.999-0.092l-0.085 0.006h26.505c0.561 0.080 1.21 0.126 1.869 0.126 7.711 0 13.963-6.251 13.963-13.963 0-0.433-0.020-0.861-0.058-1.284l0.004 0.054v-94.661h-11.675c-0.588-0.088-1.266-0.139-1.956-0.139-7.668 0-13.884 6.216-13.884 13.884 0 0.465 0.023 0.926 0.068 1.379l-0.005-0.057zM2868.478 295.477v51.512l29.187-35.34c2.485-2.573 5.967-4.171 9.821-4.171s7.336 1.598 9.817 4.167l0.004 0.004 29.582 35.735v-51.669c-0.035-0.369-0.054-0.797-0.054-1.23 0-7.711 6.251-13.963 13.963-13.963 0.659 0 1.307 0.046 1.942 0.134l-0.073-0.008h11.517v94.661c0.035 0.369 0.054 0.797 0.054 1.23 0 7.711-6.251 13.963-13.963 13.963-0.659 0-1.307-0.046-1.942-0.134l0.073 0.008h-11.438l-39.442-47.804-39.442 47.804h-11.438c-0.561 0.080-1.21 0.126-1.869 0.126-7.711 0-13.963-6.251-13.963-13.963 0-0.433 0.020-0.861 0.058-1.284l-0.004 0.054v-94.661h11.517c0.648-0.107 1.396-0.168 2.157-0.168 7.711 0 13.963 6.251 13.963 13.963 0 0.309-0.010 0.615-0.030 0.919l0.002-0.041zM3022.066 324.822h24.375c0.039 0 0.084-0.001 0.13-0.001 6.73 0 12.476 4.214 14.743 10.147l0.036 0.108 6.469 12.622h-45.753v17.907h62.319v9.308c0.035 0.369 0.054 0.797 0.054 1.23 0 7.711-6.251 13.963-13.963 13.963-0.659 0-1.307-0.046-1.942-0.134l0.073 0.008h-58.927c-0.374 0.036-0.808 0.056-1.246 0.056-7.624 0-13.805-6.181-13.805-13.805 0-0.464 0.023-0.923 0.068-1.376l-0.005 0.057v-79.594c-0.021-0.287-0.032-0.622-0.032-0.959 0-7.842 6.357-14.199 14.199-14.199 0.567 0 1.127 0.033 1.677 0.098l-0.067-0.006h61.924c0.561-0.080 1.21-0.126 1.869-0.126 7.711 0 13.963 6.251 13.963 13.963 0 0.433-0.020 0.861-0.058 1.284l0.004-0.054v9.229h-66.105v20.037zM3095.508 365.763h38.575v-85.511h27.531v85.353h23.665c0.067-0.001 0.146-0.002 0.225-0.002 6.878 0 12.728 4.401 14.887 10.54l0.034 0.111c2.603 5.127 7.257 14.041 7.257 14.041h-97.186c-0.374 0.036-0.808 0.056-1.246 0.056-7.624 0-13.805-6.181-13.805-13.805 0-0.464 0.023-0.923 0.068-1.376l-0.005 0.057z" />
<glyph unicode="&#xe930;" horiz-adv-x="1087" d="M15.221 694.709h30.022l33.29-53.553 33.523 53.553h30.022v-126.623h-27.92v82.641l-35.624-54.067h-0.7l-35.297 53.553v-82.127h-27.314z" />
<glyph unicode="&#xe931;" horiz-adv-x="1087" d="M211.131 695.596h25.679l54.3-127.51h-29.134l-11.579 28.387h-53.553l-11.579-28.387h-28.387zM240.452 620.892l-16.808 41.227-16.855-41.040z" />
<glyph unicode="&#xe932;" horiz-adv-x="1087" d="M306.098 694.709h51.732c30.208 0 48.511-17.929 48.511-44.122 0-29.321-22.785-44.542-51.359-44.542h-21.010v-37.959h-28.014zM356.056 630.837c14.007 0 22.038 8.311 22.038 19.563 0 12.466-8.684 19.143-22.598 19.143h-21.524v-38.706z" />
<glyph unicode="&#xe933;" horiz-adv-x="1087" d="M422.449 694.709h28.014v-55.374l51.359 55.374h33.617l-51.359-53.74 53.927-72.883h-33.757l-39.313 53.88-14.661-15.174v-38.706h-28.014z" />
<glyph unicode="&#xe934;" horiz-adv-x="1087" d="M549.959 694.709h95.527v-24.792h-67.84v-25.679h59.67v-24.792h-59.67v-26.566h68.727v-24.792h-96.414z" />
<glyph unicode="&#xe935;" horiz-adv-x="1087" d="M696.144 669.029h-38.566v25.679h104.959v-25.679h-38.566v-100.943h-28.014z" />
<glyph unicode="&#xe936;" horiz-adv-x="1087" d="M15.221 537.738h105.659v-126.623h-28.014v101.504h-49.771v-101.504h-28.014z" />
<glyph unicode="&#xe937;" horiz-adv-x="1087" d="M146.746 537.738h51.732c30.208 0 48.464-17.882 48.464-44.122 0-29.321-22.785-44.495-51.359-44.495h-20.964v-38.005h-28.014zM196.657 473.913c14.007 0 22.084 8.311 22.084 19.516 0 12.466-8.684 19.189-22.598 19.189h-21.524v-38.706z" />
<glyph unicode="&#xe938;" horiz-adv-x="1087" d="M257.447 474.426c0 0.010 0 0.022 0 0.034 0 36.1 29.265 65.366 65.366 65.366 0.739 0 1.475-0.012 2.208-0.037l-0.107 0.003c39.266 0 67.28-28.994 67.28-65.366s-28.434-65.366-67.467-65.366-67.28 28.994-67.28 65.366zM362.92 474.426c0.015 0.404 0.024 0.878 0.024 1.354 0 21.207-17.158 38.406-38.35 38.472h-0.006c-22.458 0-38.005-17.742-38.005-39.826-0.014-0.39-0.022-0.848-0.022-1.307 0-21.206 17.158-38.405 38.348-38.472h0.006c22.458 0 38.005 17.695 38.005 39.78z" />
<glyph unicode="&#xe939;" horiz-adv-x="1087" d="M467.458 406.073v13.727c-39.079 0-62.751 24.232-62.751 56.028s23.858 55.001 62.751 55.001v11.813h28.014v-11.579c38.706 0 62.751-23.345 62.751-55.187s-23.672-56.028-62.751-56.028v-13.727zM467.458 506.269c-20.403 0-34.177-12.093-34.177-30.769s14.007-30.909 34.177-30.909zM495.472 444.592c20.45 0 33.99 11.953 33.99 30.909s-13.54 30.769-33.99 30.769z" />
<glyph unicode="&#xe93a;" horiz-adv-x="1087" d="M685.452 411.115h-27.5v83.061l-55.327-83.061h-26.24v126.623h27.5v-83.014l55.701 83.014h25.866z" />
<glyph unicode="&#xe93b;" horiz-adv-x="1087" d="M818.612 537.738v-126.623h-28.014v101.504h-36.558v-9.618c0-74.704-12.093-93.38-41.040-93.38-5.219 0.049-10.273 0.642-15.143 1.724l0.482-0.090 1.821 22.971c1.301-0.231 2.803-0.366 4.335-0.373h0.007c14.987 0 23.345 9.618 23.345 77.785v26.1z" />
<glyph unicode="&#xe93c;" horiz-adv-x="1087" d="M844.478 537.738h28.014v-43.048h26.94c29.321 0 46.316-16.295 46.316-41.040 0-26.053-18.442-42.534-48.137-42.534h-53.133zM872.492 470.831v-34.55h24.746c14.007 0 20.824 5.976 20.824 17.695 0 10.692-7.050 16.855-20.964 16.855z" />
<glyph unicode="&#xe93d;" horiz-adv-x="1087" d="M1076.573 772.727l-314.782 184.471c-2.962 1.76-6.53 2.8-10.342 2.8s-7.38-1.040-10.437-2.852l0.095 0.052-291.017-170.558c-0.473-0.317-0.783-0.845-0.794-1.446v-43.61c0-0.902 0.732-1.633 1.634-1.633 0.31 0 0.601 0.087 0.848 0.237l-0.007-0.004 299.935 175.647 294.146-172.472v-40.153h-36.605c-11.294 0-20.45-9.156-20.45-20.45v-270.801c0-0.516 0.418-0.934 0.934-0.934v0h39.033c0.516 0 0.934 0.418 0.934 0.934v0 250.397h36.605c11.294 0 20.45 9.156 20.45 20.45v72.276c-0.023 7.495-4.065 14.040-10.083 17.597l-0.095 0.052z" />
<glyph unicode="&#xe93e;" horiz-adv-x="1087" d="M533.991 5.428l256-48.884v36.978c0 5.157 4.181 9.338 9.338 9.338v0h253.992v215.24l-125.689 72.603-129.424-74.704c-1.3-0.729-2.852-1.159-4.506-1.159s-3.206 0.43-4.553 1.183l0.047-0.024-129.424 74.704-125.689-72.603v-212.765z" />
<glyph unicode="&#xe93f;" horiz-adv-x="1087" d="M1067.188 231.64l-134.933 77.785c-1.339 0.787-2.95 1.251-4.669 1.251s-3.33-0.465-4.713-1.275l0.044 0.024-129.284-74.704-129.284 74.704c-1.339 0.787-2.95 1.251-4.669 1.251s-3.33-0.465-4.713-1.275l0.044 0.024-134.793-77.785c-2.811-1.645-4.669-4.649-4.669-8.087 0-0.013 0-0.026 0-0.039v0.002-225.792c-0.001-0.051-0.002-0.11-0.002-0.17 0-4.53 3.226-8.307 7.506-9.158l0.059-0.010 274.442-52.433c0.259-0.023 0.56-0.036 0.864-0.036s0.605 0.013 0.902 0.039l-0.039-0.003c2.245 0.019 4.298 0.827 5.898 2.16l-0.015-0.012c2.053 1.718 3.352 4.278 3.362 7.142v38.941h254.086c5.157 0 9.338 4.181 9.338 9.338v0 230.087c0 0.011 0 0.024 0 0.037 0 3.438-1.858 6.442-4.625 8.063l-0.044 0.024zM1053.274 2.953h-253.992c-5.157 0-9.338-4.181-9.338-9.338v0-37.118l-256 48.884v212.812l125.689 72.603 129.424-74.704c1.3-0.729 2.852-1.159 4.506-1.159s3.206 0.43 4.553 1.183l-0.047-0.024 129.424 74.704 125.689-72.603z" />
<glyph unicode="&#xe940;" horiz-adv-x="1087" d="M942.293 97.873h-7.003l-21.197-40.62c-1.414-3.471-4.762-5.873-8.671-5.873-0.549 0-1.087 0.047-1.61 0.138l0.056-0.008h-9.338l28.621 54.16c2.125 3.277 5.765 5.414 9.904 5.414 0.36 0 0.715-0.016 1.067-0.048l-0.045 0.003h14.38c0.318 0.047 0.685 0.074 1.058 0.074 4.177 0 7.564-3.386 7.564-7.564 0-0.24-0.011-0.477-0.033-0.711l0.002 0.030v-51.359h-6.303c-0.317-0.047-0.682-0.074-1.054-0.074-4.177 0-7.564 3.386-7.564 7.564 0 0.223 0.010 0.444 0.029 0.662l-0.002-0.028zM729.341 111.88c-0.223 0.006-0.485 0.009-0.747 0.009-16.715 0-30.274-13.513-30.348-30.21v-0.007c0.666-16.673 14.343-29.936 31.119-29.936s30.453 13.264 31.117 29.876l0.002 0.060c-0.074 16.705-13.633 30.219-30.348 30.219-0.279 0-0.558-0.004-0.835-0.011l0.041 0.001zM729.341 64.397c-9.114 0.152-16.444 7.577-16.444 16.713 0 0.198 0.003 0.395 0.010 0.591l-0.001-0.028c-0.015 0.262-0.023 0.568-0.023 0.877 0 9.102 7.379 16.481 16.481 16.481s16.481-7.379 16.481-16.481c0-0.308-0.008-0.615-0.025-0.919l0.002 0.042c0.006-0.167 0.009-0.364 0.009-0.562 0-9.153-7.356-16.587-16.479-16.713h-0.012zM991.364 91.243h-7.844v11.626c0.019 0.202 0.030 0.437 0.030 0.674 0 4.203-3.407 7.61-7.61 7.61-0.356 0-0.707-0.024-1.050-0.072l0.040 0.004h-6.35v-51.359c-0.014-0.175-0.022-0.38-0.022-0.586 0-4.229 3.428-7.657 7.657-7.657 0.37 0 0.734 0.026 1.090 0.077l-0.041-0.005h12.84c14.007 0 22.971 7.751 22.971 20.217s-8.311 19.47-21.711 19.47zM990.57 64.817h-7.050v13.167h7.050c4.669 0 7.284-2.148 7.284-6.303s-2.475-6.863-7.284-6.863zM630.032 111.087h-34.177c-0.214 0.021-0.462 0.033-0.713 0.033-4.332 0-7.844-3.512-7.844-7.844 0-0.341 0.022-0.676 0.064-1.005l-0.004 0.039v-50.752h14.941v46.27h21.384v-38.099c-0.017-0.192-0.027-0.415-0.027-0.64 0-4.203 3.407-7.61 7.61-7.61 0.388 0 0.77 0.029 1.143 0.085l-0.042-0.005h6.256v51.359c0.016 0.188 0.026 0.406 0.026 0.627 0 4.203-3.407 7.61-7.61 7.61-0.355 0-0.704-0.024-1.046-0.071l0.040 0.004zM806.659 108.192v7.564h-6.35c-0.323 0.049-0.696 0.077-1.075 0.077-4.152 0-7.517-3.365-7.517-7.517 0-0.044 0-0.087 0.001-0.13v0.007c-16.248-1.261-26.707-11.065-26.707-25.166s10.459-24.232 26.707-25.446v-7.564h14.941v7.564c16.201 1.214 26.613 11.159 26.613 25.446s-10.412 23.952-26.613 25.166zM779.953 83.026c0 6.723 4.202 10.925 11.766 11.906v-24.092c-0.002 0-0.005 0-0.008 0-6.498 0-11.766 5.268-11.766 11.766 0 0.148 0.003 0.295 0.008 0.441l-0.001-0.021zM818.332 83.026c0.006-0.139 0.009-0.303 0.009-0.467 0-6.459-5.226-11.698-11.68-11.719h-0.002v24.092c0.029 0 0.064 0 0.098 0 6.395 0 11.579-5.184 11.579-11.579 0-0.115-0.002-0.23-0.005-0.344v0.017zM871.324 105.577l-18.116-28.901v26.053c0.020 0.204 0.031 0.441 0.031 0.681 0 4.177-3.386 7.564-7.564 7.564-0.373 0-0.74-0.027-1.099-0.079l0.041 0.005h-6.35v-59.483h14.614l23.018 36.511v-28.341c-0.015-0.177-0.023-0.384-0.023-0.593 0-4.229 3.428-7.657 7.657-7.657 0.387 0 0.767 0.029 1.139 0.084l-0.042-0.005h6.256v59.623h-8.451c-0.342 0.035-0.74 0.056-1.142 0.056-4.182 0-7.855-2.182-9.942-5.47l-0.028-0.048zM673.22 110.947h-14.894c-0.212 0.020-0.459 0.032-0.708 0.032-4.332 0-7.844-3.512-7.844-7.844 0-0.324 0.020-0.643 0.058-0.957l-0.004 0.038v-50.798h14.941v19.61h8.451c0.409-0.030 0.887-0.047 1.368-0.047 11.088 0 20.077 8.989 20.077 20.077s-8.989 20.077-20.077 20.077c-0.482 0-0.959-0.017-1.432-0.050l0.064 0.004zM679.71 91.010c0-4.669-2.615-6.957-7.517-6.957h-7.424v13.633h7.564c4.669 0.14 7.377-2.101 7.377-6.537zM843.684 176.172c0.021 0.219 0.034 0.474 0.034 0.731 0 4.409-3.575 7.984-7.984 7.984-0.391 0-0.775-0.028-1.15-0.082l0.043 0.005h-15.174c-0.318 0.029-0.688 0.045-1.061 0.045-4.38 0-8.231-2.267-10.442-5.693l-0.030-0.049-30.255-57.148h9.711c0.482-0.083 1.037-0.131 1.604-0.131 4.134 0 7.676 2.535 9.158 6.135l0.024 0.066 5.603 10.739h24.185v-8.217c-0.019-0.207-0.030-0.447-0.030-0.69 0-4.409 3.575-7.984 7.984-7.984 0.406 0 0.805 0.030 1.194 0.089l-0.044-0.005h6.63zM827.95 170.943v-18.956h-17.275l9.898 18.956zM897.657 170.943h-7.377l-22.411-42.815c-1.505-3.666-5.047-6.2-9.182-6.2-0.566 0-1.122 0.048-1.662 0.139l0.058-0.008h-9.711l30.395 57.195c2.23 3.475 6.074 5.744 10.447 5.744 0.382 0 0.76-0.017 1.133-0.051l-0.048 0.004h15.174c0.333 0.049 0.717 0.077 1.107 0.077 4.409 0 7.984-3.575 7.984-7.984 0-0.257-0.012-0.512-0.036-0.763l0.002 0.032v-54.207h-6.817c-0.347-0.054-0.747-0.084-1.155-0.084-4.384 0-7.937 3.554-7.937 7.937 0 0.26 0.012 0.517 0.037 0.77l-0.003-0.032zM967.365 170.943h-7.377l-22.411-42.861c-1.521-3.665-5.070-6.195-9.211-6.195-0.556 0-1.101 0.046-1.632 0.133l0.058-0.008h-9.758l30.302 57.195c2.219 3.475 6.056 5.746 10.423 5.746 0.391 0 0.777-0.018 1.158-0.054l-0.049 0.004h15.174c0.333 0.049 0.717 0.077 1.107 0.077 4.409 0 7.984-3.575 7.984-7.984 0-0.257-0.012-0.512-0.036-0.763l0.002 0.032v-54.207h-6.677c-0.347-0.054-0.747-0.084-1.155-0.084-4.384 0-7.937 3.554-7.937 7.937 0 0.26 0.012 0.517 0.037 0.77l-0.003-0.032zM603.185 130.696v29.555l16.668-20.217c1.431-1.483 3.43-2.409 5.646-2.428h0.003c2.217 0.030 4.213 0.953 5.648 2.426l0.002 0.002 16.948 20.45v-29.555c-0.021-0.216-0.032-0.466-0.032-0.719 0-4.435 3.595-8.031 8.031-8.031 0.473 0 0.937 0.041 1.388 0.119l-0.048-0.007h6.583v54.16c0.024 0.233 0.038 0.503 0.038 0.776 0 4.409-3.575 7.984-7.984 7.984-0.492 0-0.973-0.044-1.441-0.13l0.049 0.007h-6.583l-22.458-27.547-22.645 27.407h-6.583c-0.333 0.049-0.717 0.077-1.107 0.077-4.409 0-7.984-3.575-7.984-7.984 0-0.257 0.012-0.512 0.036-0.763l-0.002 0.032v-54.16h6.583c0.344-0.052 0.742-0.082 1.146-0.082 4.435 0 8.031 3.595 8.031 8.031 0 0.226-0.009 0.45-0.028 0.672l0.002-0.029zM691.009 147.598h14.007c3.852 0.084 7.122 2.488 8.475 5.867l0.022 0.063 3.735 7.19h-26.24v10.225h35.624v5.323c0.021 0.219 0.034 0.474 0.034 0.731 0 4.409-3.575 7.984-7.984 7.984-0.391 0-0.775-0.028-1.15-0.082l0.043 0.005h-33.71c-0.22 0.022-0.476 0.034-0.734 0.034-4.384 0-7.937-3.554-7.937-7.937 0-0.259 0.012-0.514 0.037-0.767l-0.002 0.032v-45.616c-0.012-0.168-0.019-0.364-0.019-0.561 0-4.487 3.637-8.124 8.124-8.124 0.435 0 0.863 0.034 1.279 0.1l-0.046-0.006h35.484c0.331-0.049 0.714-0.077 1.103-0.077 4.409 0 7.984 3.575 7.984 7.984 0 0.241-0.011 0.479-0.031 0.714l0.002-0.030v5.323h-38.099v11.626zM733.029 170.943h22.131v-48.931h15.734v48.931h13.727c3.871 0.064 7.163 2.474 8.522 5.867l0.022 0.063c1.494 2.941 4.155 8.031 4.155 8.031h-55.561c-0.22 0.022-0.476 0.034-0.734 0.034-4.384 0-7.937-3.554-7.937-7.937 0-0.259 0.012-0.514 0.037-0.767l-0.002 0.032z" />
<glyph unicode="&#xe941;" horiz-adv-x="1087" d="M14.894 201.805c-0.006 0.195-0.010 0.424-0.010 0.654 0 12.377 10.034 22.411 22.411 22.411 0.020 0 0.040 0 0.059 0h-0.003c0.015 0 0.033 0 0.051 0 6.643 0 12.638-2.774 16.889-7.228l0.009-0.009-2.148-2.241c-3.71 3.964-8.961 6.448-14.793 6.49h-0.008c-10.664-0.531-19.109-9.306-19.109-20.053s8.445-19.523 19.061-20.051l0.047-0.002c0.004 0 0.009 0 0.014 0 6.098 0 11.574 2.663 15.328 6.889l0.018 0.021 2.241-2.148c-4.294-4.796-10.504-7.799-17.416-7.799-0.115 0-0.229 0.001-0.343 0.002h0.017c-0.047 0-0.102-0.001-0.158-0.001-12.248 0-22.178 9.929-22.178 22.178 0 0.312 0.006 0.623 0.019 0.932l-0.001-0.044z" />
<glyph unicode="&#xe942;" horiz-adv-x="1087" d="M62.284 224.076h31.702v-3.035h-28.387v-17.415h25.539v-3.035h-25.539v-17.929h28.714v-3.035h-32.029z" />
<glyph unicode="&#xe943;" horiz-adv-x="1087" d="M115.744 221.041h-15.548v3.035h34.364v-3.035h-15.501v-41.507h-3.315z" />
<glyph unicode="&#xe944;" horiz-adv-x="1087" d="M143.057 224.076h3.315v-17.882h13.167c8.498 0 16.248-3.642 16.248-12.793s-6.443-14.007-15.921-14.007h-16.808zM159.305 182.569c8.031 0 13.026 3.502 13.026 10.692s-5.136 9.898-13.4 9.898h-12.56v-20.59z" />
<glyph unicode="&#xe945;" horiz-adv-x="1087" d="M36.045 106.558h-2.101c-0.49-0.045-1.060-0.070-1.636-0.070-10.572 0-19.143 8.571-19.143 19.143s8.571 19.143 19.143 19.143c0.576 0 1.146-0.025 1.709-0.075l-0.073 0.005h2.101v4.669h3.315v-4.669h2.054c0.49 0.045 1.060 0.070 1.636 0.070 10.572 0 19.143-8.571 19.143-19.143s-8.571-19.143-19.143-19.143c-0.576 0-1.146 0.025-1.709 0.075l0.073-0.005h-2.054v-4.949h-3.315zM36.045 109.546v32.169h-2.101c-10.972 0-17.088-6.723-17.088-16.108s6.116-15.828 17.088-16.061zM41.414 109.546c10.972 0.233 17.088 6.723 17.088 16.061s-6.116 15.921-17.088 16.108h-2.054v-32.169z" />
<glyph unicode="&#xe946;" horiz-adv-x="1087" d="M70.035 147.598h3.315v-39.78l29.368 39.78h3.222v-44.589h-3.315v39.92l-28.901-39.826h-3.688z" />
<glyph unicode="&#xe947;" horiz-adv-x="1087" d="M117.378 147.598h16.201c9.805 0 16.528-5.042 16.528-14.007s-8.077-14.007-17.369-14.007h-12.046v-16.622h-3.315zM132.926 122.712c8.264 0 14.007 4.342 14.007 11.065s-5.463 10.785-13.493 10.785h-12.606v-21.851z" />
<glyph unicode="&#xe948;" horiz-adv-x="1087" d="M158.325 147.598h3.128l17.929-26.38 17.882 26.38h3.128v-44.589h-3.315v38.753l-17.649-25.679h-0.28l-17.602 25.679v-38.753h-3.222z" />
<glyph unicode="&#xe949;" horiz-adv-x="1087" d="M212.065 147.598h31.702v-3.035h-28.387v-17.509h25.539v-2.801h-25.539v-17.882h28.714v-3.082h-32.029z" />
<glyph unicode="&#xe94a;" horiz-adv-x="1087" d="M253.152 147.598h3.315v-20.637h28.341v20.637h3.315v-44.589h-3.315v21.244h-28.341v-20.917h-3.315z" />
<glyph unicode="&#xe94b;" horiz-adv-x="1087" d="M299.982 147.598h3.502v-20.637h28.527v20.637h3.315v-44.589h-3.315v21.244h-28.527v-20.917h-3.268z" />
<glyph unicode="&#xe94c;" horiz-adv-x="1087" d="M346.765 147.598h3.408v-17.882h13.213c8.451 0 16.201-3.642 16.201-12.793s-6.396-14.007-15.875-14.007h-16.948zM363.013 106.091c8.031 0 13.073 3.502 13.073 10.692s-5.183 9.852-13.447 9.852h-12.466v-20.543zM385.611 147.598h3.315v-44.589h-3.315z" />
<glyph unicode="&#xe94d;" horiz-adv-x="1087" d="M415.025 125.981l-17.135 21.617h3.922l15.221-19.61 15.174 19.61h3.875l-17.042-21.757 17.695-22.831h-3.969l-15.828 20.59-15.828-20.59h-3.875z" />
<glyph unicode="&#xe94e;" horiz-adv-x="1087" d="M16.855 71.587h3.128l17.882-26.38 17.882 26.38h3.128v-44.589h-3.315v38.706l-17.602-25.493h-0.28l-17.649 25.679v-38.706h-3.175z" />
<glyph unicode="&#xe94f;" horiz-adv-x="1087" d="M87.497 71.867h3.175l20.777-44.869h-3.642l-5.649 12.466h-26.333l-5.79-12.466h-3.455zM100.757 42.453l-11.719 25.773-11.813-25.819z" />
<glyph unicode="&#xe950;" horiz-adv-x="1087" d="M119.292 71.587h28.014v-3.082h-24.699v-41.507h-3.315z" />
<glyph unicode="&#xe951;" horiz-adv-x="1087" d="M164.581 71.867h3.175l20.777-44.869h-3.642l-5.649 12.466h-26.333l-5.649-12.466h-3.455zM177.841 42.453l-11.719 25.773-11.766-25.819z" />
<glyph unicode="&#xe952;" horiz-adv-x="1087" d="M191.008 33.348l2.194 2.475c4.015-4.067 9.589-6.586 15.752-6.586 0.125 0 0.25 0.001 0.374 0.003h-0.019c0.389-0.052 0.839-0.082 1.296-0.082 5.373 0 9.783 4.126 10.234 9.382l0.003 0.038c0 5.743-4.669 9.338-13.213 9.338h-4.669v2.941h4.902c6.723 0 11.906 3.408 11.906 9.338 0 5.136-4.669 8.871-11.112 8.871-5.165-0.014-9.886-1.902-13.521-5.019l0.028 0.024-1.961 2.521c4.002 3.43 9.242 5.518 14.97 5.518 0.22 0 0.439-0.003 0.657-0.009l-0.032 0.001c8.591 0 14.38-5.042 14.38-11.906-0.028-5.133-3.562-9.433-8.328-10.629l-0.076-0.016c5.19-1.045 9.083-5.449 9.337-10.806l0.001-0.026c0-6.863-6.163-12.513-15.081-12.513-0.041 0-0.089 0-0.137 0-6.937 0-13.239 2.721-17.896 7.154l0.011-0.010z" />
<glyph unicode="&#xe953;" horiz-adv-x="1087" d="M233.449 71.587h3.315v-39.826l28.994 39.826h3.222v-44.589h-3.315v39.78l-28.901-39.78h-3.315z" />
<glyph unicode="&#xe954;" horiz-adv-x="1087" d="M280.512 71.587h3.315v-20.637h28.527v20.637h3.315v-44.589h-3.315v20.87h-28.527v-20.87h-3.315z" />
<glyph unicode="&#xe955;" horiz-adv-x="1087" d="M325.381 49.269c0.364 12.093 10.254 21.757 22.402 21.757 12.377 0 22.411-10.034 22.411-22.411s-10.034-22.411-22.411-22.411c-0.013 0-0.026 0-0.039 0h0.002c-12.361 0.021-22.374 10.047-22.374 22.411 0 0.23 0.003 0.459 0.010 0.687l-0.001-0.033zM366.748 49.269c-0.562 10.042-8.842 17.973-18.975 17.973-10.495 0-19.003-8.508-19.003-19.003s8.508-19.003 19.003-19.003c0.105 0 0.21 0.001 0.315 0.003h-0.016c10.392 0.329 18.691 8.832 18.691 19.274 0 0.266-0.005 0.531-0.016 0.794l0.001-0.038z" />
<glyph unicode="&#xe956;" horiz-adv-x="1087" d="M379.915 71.587h18.396c8.731 0 14.474-4.342 14.474-11.112 0-0.022 0-0.048 0-0.073 0-4.867-3.156-8.997-7.533-10.456l-0.078-0.022c5.369-1.401 10.085-4.669 10.085-10.785 0-7.424-6.396-12.139-16.015-12.139h-19.33zM397.937 50.997c6.677 0 11.439 3.268 11.439 9.338 0 4.669-4.015 8.217-11.112 8.217h-15.034v-17.509zM399.384 30.033c7.657 0 12.513 3.502 12.513 9.338s-4.669 8.684-13.587 8.684h-15.081v-17.929z" />
</font>
</defs>
</svg>
